<svg xmlns="http://www.w3.org/2000/svg" viewBox="0 0 365.77 129.1"><defs><style>.cls-1{fill:#5b2e2e;}.cls-1,.cls-2,.cls-3{stroke:#000;stroke-miterlimit:10;stroke-width:0.5px;}.cls-2{fill:#3e2327;}.cls-3{fill:none;}</style></defs><title>Layer 27 (2)</title><g id="Layer_2" data-name="Layer 2"><g id="Layer_27" data-name="Layer 27"><path class="cls-1" d="M.25,62.89V24.07a5,5,0,0,0,1.63.59C3.81,25,5.31,24,6.66,23.2a68.89,68.89,0,0,1,6.85-3.53A20.38,20.38,0,0,1,19.3,18a17,17,0,0,1,7.65.73,17.15,17.15,0,0,1,2,1,9.37,9.37,0,0,0,1.5,1,10.3,10.3,0,0,0,2.47.84,13.34,13.34,0,0,0,3.52.29,15.73,15.73,0,0,0,3.76-.7C42.7,20.37,43,19.92,46,18.83a27.29,27.29,0,0,1,5.2-1.52A16,16,0,0,1,55.76,17a17.52,17.52,0,0,1,4.33,1.12,29.13,29.13,0,0,0,8.4,1.41,31,31,0,0,0,9-1c1-.22.46-.14,5.87-1.58C87,16,88,15.75,88.76,15.57c1.32-.31,3.3-.76,5.73-1.14,1.28-.2,2.62-.37,6.47-.69,3-.25,5.32-.4,9-.64l9-.56,9.46-.57s2.64-.16,9.94-.45a24.92,24.92,0,0,1,5.91.18,54.43,54.43,0,0,1,5.35,1.52c4.7,1.41,5.23,1.53,6.07,1.6a10.6,10.6,0,0,0,5.48-.7,12.28,12.28,0,0,0,5.24-4.75l1.85-1.55,1.47-.42L178.13,13l26.05-1.54,31-1.83,2.1-4.86c0-.06.58-1.59,1.84-1.78a2.52,2.52,0,0,1,2.54,2.16l1.26,2.91A8.26,8.26,0,0,0,244,10.18a7.65,7.65,0,0,0,2,1.8c1.55,1,4.54,1.47,8.21.88,1.87-.32,4.69-.86,8.12-1.72,3.24-.8,4.92-1.37,8.75-2.44,0,0,4.39-1.22,9.62-2.49,8.27-2,16.13-2.38,24.61-2.77,9.23-.41,16.44-.21,21.13-.07,12.43.37,18.65.55,19.71.75,2.68.49,5.89.36,12.3.09a9.2,9.2,0,0,0,4.73-1.44A10.29,10.29,0,0,0,365.35.86L362.78,14.4l-18.06,1.85L317.6,19.39l-9.36,1.66L298.54,24l-9.74,3.53-13,6.32L264.17,40l-10.84,5.87L237.06,57l-10.24,6.84L213.9,73.93,200.51,60.42l-7.34-3.9-2.69,8.69v15l-6-1,4.06,20.43L183.9,122l-30.7-6.44-47.49.14L86.15,127.81l-13-2.76L73,122l-30.65,6.41-22,.49.2-16.43-8.81-11.77,1.8-13Z"/><polyline class="cls-2" points="3.85 40.78 16.74 38.85 21.21 27.57 33.58 29.18 36.47 35.62 54.09 24.75 64.09 32.76 84.87 32.76 106.7 22.97 117.03 24.75 127.22 17.26 134.85 24.75 173.78 26.6 191.4 24.16 213.54 22.97 225.34 17.26 237.44 24.75 244.8 17.26 256.11 24.75 286.1 26.92"/><polyline class="cls-2" points="10.69 51.6 65.14 47.78 84.61 39.36 141.72 36.13 135.37 40.65 214.55 36.13 195.61 51.6 227.12 43.87 240.33 42.26 230.6 51.6 256.11 43.87"/><line class="cls-3" x1="26.74" y1="120.48" x2="77.77" y2="94.32"/><line class="cls-3" x1="42.26" y1="122.15" x2="79.35" y2="103.08"/><line class="cls-3" x1="103.56" y1="96.68" x2="148.55" y2="74.84"/></g></g></svg>