<svg xmlns="http://www.w3.org/2000/svg" viewBox="0 0 1226.5 263.53"><defs><style>.cls-1{fill:#5b2e2e;}.cls-2,.cls-3{fill:none;stroke:#000;stroke-miterlimit:10;}.cls-2{stroke-width:0.5px;}.cls-3{stroke-width:0.75px;}</style></defs><title>Layer 28 (2)</title><g id="Layer_2" data-name="Layer 2"><g id="Layer_28" data-name="Layer 28"><path class="cls-1" d="M1226.14,236.07l-.25-233.49L1187.73,4.5l-22-4.25H1077l-53.31,4.28-82.82,8.16-69.17,7a42.14,42.14,0,0,0-24.44-2.34c-7.81,1.72-11.39,5.07-19.35,8.56-8.73,3.82-13.5,3.76-31.1,5.83-31.85,3.75-30.16,5.59-47.28,6.61-18.15,1.08-21.41.95-37.12-.78-29.5-3.25-35.52,8.73-65.37,11.66-37.13,3.65-55.31,8-72.6,14.59-9.45,3.62-16.79,2.78-21.31,8l-15.2,8.9-7.64,4.41-12.31,6.42-3.14,1H503.37l-8.8,0L485.8,93l-10.19,1.1L352.83,112.35a31,31,0,0,0-9.64-6.59c-3.16-1.33-8.23-3.47-13.73-1.69a33.19,33.19,0,0,1-4.4,1.56,17.49,17.49,0,0,1-8.41-.29l-21.08.79-24.63.83-16.25-.67a50.4,50.4,0,0,0-13-1.35,53.21,53.21,0,0,0-10.14,1.31,69.06,69.06,0,0,0-16.81,6.13c-10.56,5.46-30.13,7.33-65.58,10.91-47.09,4.77-52.94,5.55-63.54,9.35A247.93,247.93,0,0,0,53.5,147.25a321.86,321.86,0,0,0-33.08,20.81c-8.31,5.81-15.12,11-20,14.95l8.14,8,3.18-5.47L17.08,174l4.78-1.72a13.53,13.53,0,0,1,3.27-.8c1.81-.21,3.67,0,7.11,1.12a54.59,54.59,0,0,1,8.68,3.85c3.36,1.8,6,3.55,7.29,4.39,3.92,2.58,5.88,3.88,6.18,4.1a14.52,14.52,0,0,0,4.23,2.47,5.11,5.11,0,0,0,3.82.28c.25-.11.48-.24,2.67-2.21a22.52,22.52,0,0,1,2.43-2.13c1.14-.73,2.42-1.56,3.58-1A9.45,9.45,0,0,1,73,183.4c.28.23.52.45.81.4.57-.09.82-1,.87-1.12a4.91,4.91,0,0,0-.23-2.37,14.2,14.2,0,0,1-.23-4.09,7.08,7.08,0,0,1,.54-2.23,5.74,5.74,0,0,1,2.56-2.44c5.2-2.56,12,1.34,16.69,4.32,2,1.25,4.13,2.1,6,3.56a10.7,10.7,0,0,0,2.43,1.28,2.8,2.8,0,0,0,1.93.23,2,2,0,0,0,1.19-.84c.13-.22.26-.51.39-2.39.08-1.23,0-1.34.12-1.84a6,6,0,0,1,.7-2.23,4,4,0,0,1,2.34-1.73,6.44,6.44,0,0,1,3.39-.12c1.65.23,3.32.31,5,.67,2.71.59,5.45.9,8.16,1.44,0,0,3,.6,15.17,2.47,8.13,1.25,35.47,4.65,72.78,8l5.68,1.56,14.71,1.72,8.68-1.53a41.93,41.93,0,0,1,9,0c2.31.27,3.45.65,10,2.38,7.28,1.94,5.17,1.31,11.25,2.95,8.06,2.17,8.68,2.43,11.34,3a101.25,101.25,0,0,0,10.49,1.39c6.2.66,12.39,1.56,18.59,2.31l18.09,2.22c14.5,1.74,25.27,2.9,27.22,3.12,48.65,5.37,175,29.36,175,29.36,21.14,4,48.86,9.33,81.49,15.74l46.82,14.7h13l7-4.26-14.32-8.3L686,249.57h20.09L710.33,239h10.13l14.92-6.49h33.9L787,221l26-5.27,26,16.76,11-8.21,25-18.08,7.52,2.63,38.65,17.1,16.65-2.63-7-14.47,9.12-3.95L956.41,219l12.88,1,14.5,2.3,62-3.62,20.67-6.57,12.88,3,21.75,1.31,8.32,11.84,9.93,1L1113.72,217l23.08,8.88,6.44-1.32.27-10.52,7.79.33,5.1,8.88,18.52,6.9-7.78,3.95"/><path class="cls-2" d="M1226.25,236.07,1226,2.58,1187.83,4.5l-22-4.25h-88.82l-53.32,4.28-82.82,8.16-69.18,7a42.14,42.14,0,0,0-24.44-2.34c-7.81,1.72-11.4,5.07-19.36,8.56-8.73,3.82-13.49,3.76-31.1,5.83-31.85,3.75-30.16,5.59-47.28,6.61-18.16,1.08-21.41.95-37.13-.78-29.5-3.25-35.52,8.73-65.37,11.66-37.13,3.65-55.32,8-72.6,14.59-9.45,3.62-16.8,2.78-21.32,8l-15.2,8.9-7.64,4.41L518,91.57l-3.14,1H503.42l-8.8,0-8.77.43-10.2,1.1L352.86,112.35a30.72,30.72,0,0,0-9.64-6.59c-3.15-1.33-8.23-3.47-13.73-1.69a33.19,33.19,0,0,1-4.4,1.56,17.49,17.49,0,0,1-8.41-.29l-21.09.79L271,107l-16.25-.67a50.49,50.49,0,0,0-13.05-1.35,53.21,53.21,0,0,0-10.14,1.31,69.06,69.06,0,0,0-16.81,6.13c-10.56,5.46-30.14,7.33-65.58,10.91-47.1,4.77-52.95,5.55-63.55,9.35A249,249,0,0,0,53.5,147.25a323,323,0,0,0-33.08,20.81c-8.31,5.81-15.12,11-20,14.95l8.14,8,3.18-5.47L17.08,174l4.78-1.72a13.53,13.53,0,0,1,3.27-.8c1.82-.21,3.68,0,7.11,1.12a54.54,54.54,0,0,1,8.69,3.85c3.35,1.8,6,3.55,7.28,4.39,3.93,2.58,5.89,3.88,6.19,4.1a14.39,14.39,0,0,0,4.23,2.47,5.08,5.08,0,0,0,3.81.28c.25-.11.49-.24,2.68-2.21a21.42,21.42,0,0,1,2.43-2.13c1.13-.73,2.42-1.56,3.57-1A9.45,9.45,0,0,1,73,183.4c.28.23.52.45.82.4.57-.09.82-1,.86-1.12a4.77,4.77,0,0,0-.22-2.37,13.83,13.83,0,0,1-.23-4.09,6.57,6.57,0,0,1,.54-2.23,5.74,5.74,0,0,1,2.56-2.44c5.2-2.56,12,1.34,16.69,4.32,2,1.25,4.13,2.1,6,3.56a10.7,10.7,0,0,0,2.43,1.28,2.8,2.8,0,0,0,1.93.23,2,2,0,0,0,1.19-.84c.13-.22.26-.51.39-2.39.08-1.23,0-1.34.12-1.84a6,6,0,0,1,.7-2.23,4,4,0,0,1,2.34-1.73,6.44,6.44,0,0,1,3.39-.12c1.65.23,3.32.31,5,.67,2.71.59,5.45.9,8.16,1.44,0,0,3,.6,15.17,2.47,8.13,1.25,35.48,4.65,72.79,8l5.68,1.56,14.71,1.72,8.68-1.53a41.94,41.94,0,0,1,9,0c2.31.27,3.45.65,10,2.38,7.27,1.94,5.17,1.31,11.25,2.95,8.05,2.17,8.67,2.43,11.34,3a101.39,101.39,0,0,0,10.48,1.39c6.21.66,12.4,1.56,18.6,2.31l18.09,2.22c14.5,1.74,25.28,2.9,27.23,3.12,48.65,5.37,175,29.36,175,29.36,21.14,4,48.86,9.33,81.5,15.74l46.82,14.7h13l7-4.26-14.32-8.3L686,249.57h20.09L710.4,239h10.12l14.93-6.49h33.9L787.09,221l26-5.27,26,16.76,11-8.21,25-18.08,7.52,2.63,38.66,17.1L938,223.28l-7-14.47,9.13-3.95L956.49,219l12.89,1,14.5,2.3,62-3.62,20.68-6.57,12.88,3,21.75,1.31,8.32,11.84,9.93,1L1113.82,217l23.08,8.88,6.45-1.32.27-10.52,7.78.33,5.1,8.88,18.53,6.9-7.79,3.95"/><path class="cls-3" d="M533.57,232.36c9.87-18.43,22.39-33.31,38.12-36,16.26-2.79,24.26,9.44,46,12.38,19.07,2.58,33.46-4,51.65-12.38,28.39-13,59.52-27.31,68.5-61.89,1.84-7.1,6.58-29.77-6.74-61.9"/><path class="cls-3" d="M783.87,57.42c20.93,16.64,54.82,48.09,50.54,77-1,6.83-3.78,11-30.32,55-6.83,11.33-12.35,20.52-15.72,26.13"/><path class="cls-3" d="M545.86,91.81c65.87.31,102.23-6.77,123.52-13.76a262.37,262.37,0,0,1,37.06-9.63c24.93-4.55,35.25-2.61,51.65-4.13,44.9-4.15,51.51-26.46,97.7-34.38,24.43-4.19,19.54,3.09,53.9,0,35.8-3.22,45.78-10.7,80.48-11,20.3-.21,20.39,2.32,39.17,1.21,26.29-1.56,34.14-7,56.32-10.06,22.56-3.14,28.39.53,66.57,2.65a674.69,674.69,0,0,0,73.77,0"/><polyline class="cls-3" points="809.33 80.26 916.75 57.42 985.22 50.3 1088.56 46.7 1225.94 36.76"/><polyline class="cls-3" points="821.2 93.61 930.18 79.09 1010.12 67.54 1100.44 60.05 1226.06 50.96"/><polyline class="cls-3" points="827.45 101.32 936.43 86.81 1016.37 75.25 1106.68 67.76 1226.25 59.11"/><path class="cls-2" d="M1226.25,236.07,1226,2.58,1187.83,4.5l-22-4.25h-88.82l-53.32,4.28-82.82,8.16-69.18,7a42.14,42.14,0,0,0-24.44-2.34c-7.81,1.72-11.4,5.07-19.36,8.56-8.73,3.82-13.49,3.76-31.1,5.83-31.85,3.75-30.16,5.59-47.28,6.61-18.16,1.08-21.41.95-37.13-.78-29.5-3.25-35.52,8.73-65.37,11.66-37.13,3.65-55.32,8-72.6,14.59-9.45,3.62-16.8,2.78-21.32,8l-15.2,8.9-7.64,4.41L518,91.57l-3.14,1H503.42l-8.8,0-8.77.43-10.2,1.1L352.86,112.35a30.72,30.72,0,0,0-9.64-6.59c-3.15-1.33-8.23-3.47-13.73-1.69a33.19,33.19,0,0,1-4.4,1.56,17.49,17.49,0,0,1-8.41-.29l-21.09.79L271,107l-16.25-.67a50.49,50.49,0,0,0-13.05-1.35,53.21,53.21,0,0,0-10.14,1.31,69.06,69.06,0,0,0-16.81,6.13c-10.56,5.46-30.14,7.33-65.58,10.91-47.1,4.77-52.95,5.55-63.55,9.35A249,249,0,0,0,53.5,147.25a323,323,0,0,0-33.08,20.81c-8.31,5.81-15.12,11-20,14.95l8.14,8,3.18-5.47L17.08,174l4.78-1.72a13.53,13.53,0,0,1,3.27-.8c1.82-.21,3.68,0,7.11,1.12a54.54,54.54,0,0,1,8.69,3.85c3.35,1.8,6,3.55,7.28,4.39,3.93,2.58,5.89,3.88,6.19,4.1a14.39,14.39,0,0,0,4.23,2.47,5.08,5.08,0,0,0,3.81.28c.25-.11.49-.24,2.68-2.21a21.42,21.42,0,0,1,2.43-2.13c1.13-.73,2.42-1.56,3.57-1A9.45,9.45,0,0,1,73,183.4c.28.23.52.45.82.4.57-.09.82-1,.86-1.12a4.77,4.77,0,0,0-.22-2.37,13.83,13.83,0,0,1-.23-4.09,6.57,6.57,0,0,1,.54-2.23,5.74,5.74,0,0,1,2.56-2.44c5.2-2.56,12,1.34,16.69,4.32,2,1.25,4.13,2.1,6,3.56a10.7,10.7,0,0,0,2.43,1.28,2.8,2.8,0,0,0,1.93.23,2,2,0,0,0,1.19-.84c.13-.22.26-.51.39-2.39.08-1.23,0-1.34.12-1.84a6,6,0,0,1,.7-2.23,4,4,0,0,1,2.34-1.73,6.44,6.44,0,0,1,3.39-.12c1.65.23,3.32.31,5,.67,2.71.59,5.45.9,8.16,1.44,0,0,3,.6,15.17,2.47,8.13,1.25,35.48,4.65,72.79,8l5.68,1.56,14.71,1.72,8.68-1.53a41.94,41.94,0,0,1,9,0c2.31.27,3.45.65,10,2.38,7.27,1.94,5.17,1.31,11.25,2.95,8.05,2.17,8.67,2.43,11.34,3a101.39,101.39,0,0,0,10.48,1.39c6.21.66,12.4,1.56,18.6,2.31l18.09,2.22c14.5,1.74,25.28,2.9,27.23,3.12,48.65,5.37,175,29.36,175,29.36,21.14,4,48.86,9.33,81.5,15.74l46.82,14.7h13l7-4.26-14.32-8.3L686,249.57h20.09L710.4,239h10.12l14.93-6.49h33.9L787.09,221l26-5.27,26,16.76,11-8.21,25-18.08,7.52,2.63,38.66,17.1L938,223.28l-7-14.47,9.13-3.95L956.49,219l12.89,1,14.5,2.3,62-3.62,20.68-6.57,12.88,3,21.75,1.31,8.32,11.84,9.93,1L1113.82,217l23.08,8.88,6.45-1.32.27-10.52,7.78.33,5.1,8.88,18.53,6.9-7.79,3.95"/></g></g></svg>