<svg xmlns="http://www.w3.org/2000/svg" viewBox="0 0 1257.68 447.6"><defs><style>.cls-1{fill:#3e2327;}.cls-2,.cls-3{fill:none;stroke-miterlimit:10;}.cls-2{stroke:#542c34;}.cls-3{stroke:#000;stroke-width:0.5px;}</style></defs><title>Layer 24 (2)</title><g id="Layer_2" data-name="Layer 2"><g id="Layer_24" data-name="Layer 24"><path class="cls-1" d="M45,128.77v.63l8.52,1,10.59,1.25c5.13.62,5,.63,5.55.65,4,.17,4.93-.53,11.08-1.13a76.36,76.36,0,0,1,8.56-.32,23.26,23.26,0,0,1,6.88,1,11.65,11.65,0,0,1,3.14,1.38c1.57,1,2.62,2.29,2.84,2a2.28,2.28,0,0,0,.17-1.67,5.17,5.17,0,0,1,.43-3,21.46,21.46,0,0,1,4.09-7.14,26.27,26.27,0,0,1,5.63-5.18,22.48,22.48,0,0,1,4.6-2.56,11,11,0,0,1,4-1.08,17.28,17.28,0,0,1,4.29.48c1.66.42,3.39,1.11,3.85.4a10.68,10.68,0,0,0,0-2.2c-.1-1.6-1.19-2.45-1.9-4a12.34,12.34,0,0,1-.78-4.74,4.71,4.71,0,0,1,.74-2.56c.71-1.38,1.33-1.63,2.73-2.19a30.62,30.62,0,0,1,6.48-1.78,99.82,99.82,0,0,0,10.13-2.32,57.4,57.4,0,0,0,9-3.34L257,148.25c3.62,7.95,7,9.35,7.79,10.36l4,1.07,22.93,10.91L319,184l16.12,7.39c1,1.39,7.59,1.86,9.22,1.65l22.42-4.6,17.35-9.83,328.75,171L724,355.81l19.52,5.43,29.64,8.27L806.91,378l18.83,4,16.65,3.54,14.14,2.66,11.27,1.68,20.69,3,12.15,1.82,11.44,1.72,21.74,3.2,15.31,2.21,9.08,1.33,15,2.17,16.3,2.37,16.87,2.49,15.33,2.29,18.33,2,14.2,1.54,10.58,1.13,8.16.88,8.61.78,13.77,1.61,11.63,1.25L1120,423l14.4,1.56,4.89.26,11.79,1.67,4.64.62,5.8,1,6.72.87,6.78,1,11.35,1.58,23.2,4.39,14.79,2.93,14.06,2.87,19.15,5.53.07-274.52L1081.76,158l-169.5-12L749,117.09,645.75,84.35l-16.18-3.19-64.5-12.61L390.18,38.89l-32.62-3.77-42.51-5.36-30.27-8A34.07,34.07,0,0,0,271,21.46l-6.88,1.25L249.42,21l-6.51-1.81-72.56-7.88L160.9,9.71c-5.79-1-5.58-.92-6.41-1.07-1.31-.24-6-1.11-8.42-1.48-.88-.13-1.82-.25-2.08-.28-.91-.12-1.36-.17-1.87-.21a8.35,8.35,0,0,0-2.48,0,4.42,4.42,0,0,0-3,2.18,8.69,8.69,0,0,0-.65,3.59,5,5,0,0,1-.4,2.64,2.05,2.05,0,0,1-1.19.86,2.9,2.9,0,0,1-2.13-.33,17.44,17.44,0,0,1-2.83-1.6c-.92-.65-1.83-1.18-3.67-2.24A44.38,44.38,0,0,0,119.92,9,36.7,36.7,0,0,0,116,7.58a34.47,34.47,0,0,0-3.92-.88,10.47,10.47,0,0,0-3.93-.27,4.28,4.28,0,0,0-2.25,1,4.54,4.54,0,0,0-1.23,1.71,8.8,8.8,0,0,0-.4,4.22,18.44,18.44,0,0,0,.27,2.59,3.58,3.58,0,0,1,.06,2c-.18.41-.56,1-1,.95s-.44-.35-.9-.73a3.13,3.13,0,0,0-1.77-.65,4.38,4.38,0,0,0-2,.16,5.59,5.59,0,0,0-1.72.93,15.35,15.35,0,0,0-2.4,2.23c-1.12,1.17-1,1.24-1.45,1.51a4.16,4.16,0,0,1-2.78.52A9,9,0,0,1,87.37,22a17.59,17.59,0,0,1-3.9-2.46c-2.31-1.94-5-3.57-10.39-6.83A42.79,42.79,0,0,0,63.8,8c-3.7-1.22-7-2.31-11.07-1.27L47,8.93,40.9,22.25l-2.45,3.94L17.26,3.94,9.91,0l-3,9.53v14.6L1.18,22.87l3.73,21.4L.29,66.9l4.8,7.93-4.18,31,17.72,14.59,6,6,13.2,2.09"/><path class="cls-2" d="M1256.46,202.71c-16.6,5.75-30.11,5-38.4,2.62-20.08-5.69-30.43-21.78-46.86-16.41-6.38,2.09-8.9,5.24-14.59,9.3-30.1,21.49-67.61,10.53-75.6,8.2-29.66-8.66-27.06-23.53-50.84-25.7-21.58-2-23.58,10.3-52.16,9.84-18.75-.3-32.53-.52-46.86-10.93-10.71-7.78-18.84-19.16-28.29-15.86-4.05,1.41-4.68,4.22-8.85,8.2-15.68,15-40.64,7.53-53,3.83-7.27-2.17-6.28-2.75-23.87-10.39-28.45-12.37-42.68-18.55-54.37-18.59-24-.09-23.7,16-43.77,14.21-11.1-1-13.29-6.06-55.7-35.54-23.78-16.53-27.66-18.11-33.2-17.95-21.17.6-33.67,26.94-41.71,19.87-7.13-6.27-.26-19.84-5.32-31.19C566.38,58.89,438.93,86,381.47,93.5c-2.92.38-6.79.83-11.09-1.34-15.41-7.78-13.33-37.51-23.19-39.9-7-1.7-9.57,13-25.7,20.56-4.59,2.15-15.93,7.46-24.89,1.5-11.33-7.53-8.68-26.32-18-30.65-3.86-1.79-10.38-1.39-21.78,10.38-11,3.28-18.4,1.35-23.52-1.85s-5-5.76-11.76-10.54c-4.71-3.3-13.46-9.46-22.28-6.63-6.49,2.09-6,6.77-11.44,7.89-6.24,1.27-9.16-4.4-23.14-13.28-9.8-6.22-14.8-9.29-19.44-7.12-5.32,2.48-4.14,8.57-10.38,14-7,6.18-16.13,5-22.37,4.22-11.14-1.42-14.08-6.35-22-4C84.94,38.44,85.69,41.18,80.5,43c-11.89,4.27-18.26-9.26-31.68-6.72-7.37,1.39-7.52,5.87-14,7.12-10.34,2-20.59-7.29-29.13-18.55"/><path class="cls-2" d="M1256.46,239.08c-2,.36-7.22,1.5-10.87,2.48-18.79,5.06-21.19,11.24-28.18,10.75-14-1-15.75-26.5-30.28-29.31-8.61-1.67-12.94,6.35-25,15-20.26,14.48-51.39,22.89-75,11.73-19.67-9.29-23.2-26.93-38.44-25.08-9.71,1.17-10.26,8.57-24.23,16.28-21.72,12-48.75,9.76-53.45-2.6-1.79-4.72,1-7.3-.79-12.71-4.58-13.56-27.9-13.65-35-13.68-19.53-.07-22.67,6.24-45.29,8.15-13.33,1.12-22,1.85-32.39-1.63-25.86-8.63-26-30.84-44.76-33.55-21.41-3.1-30.88,24.58-50,17.26-6.36-2.43-4-5.29-24.49-20.84-15.27-11.58-20.85-13.3-24.75-14-8.46-1.55-8.86,1.67-20.27,2-21.6.54-25.9-10.84-38.71-5.54-7.69,3.18-10,8.88-18.63,9.12-2.86.08-9.37.56-12.81-4.4-8-11.52,3-34.7-1-37.87-5.26-4.13-26,33.74-35.47,28.64-5.94-3.21-.66-19.78-7.09-32.49-9.15-18.11-33.77-12-69.73-12.91-71.64-1.9-88.16-29.39-119.88-8.86-18.38,11.89-27.23,30.42-37.35,25.44C338.7,123.61,342.6,83.12,332.54,81c-8.18-1.75-12.7,24.64-28.79,31.17-13.69,5.55-45.6-19.25-57.64-31.25A59.83,59.83,0,0,0,220,76.15c-11.4.6-14,4.26-22.19,3.79-15-.84-18.51-13.87-32.71-20.84-17.95-8.81-21.76,7.37-49.66,5C87,61.76,71.8,43.37,55.66,55c-4.77,3.44-5.75,6.71-10.08,7.12-12.26,1.15-19-23.81-32-23.15-4.29.22-7.7,3.15-9.86,5.5"/><path class="cls-2" d="M1256.44,311.87c-19.59-22.66-38.88-26.56-47.84-24.58-12.25,2.71-14.07,13.54-32,20.59-6,2.35-24,9.43-38.42-.52-13-8.95-9.91-22.57-19.2-28.51-20.63-13.2-46.27,47.19-83.23,43.29-29.4-3.1-36.31-43.74-66.58-40.13-13,1.56-15.78,9.56-36.71,12.15-11,1.36-25,3.08-37.56-5.81-14.48-10.24-10.91-23.08-23-34.85-19.37-18.77-37.53,5.11-70.85-7.92-27.07-10.58-29-33.25-50.36-31.15-17.09,1.69-20.89,15.91-39.27,15.84-8.93,0-10.32-3.39-46.1-22.17-25-13.13-29.55-14.23-35.21-13.55-17.65,2.11-20.91,20.34-32.4,17.42-21.39-5.44-20.7-49.21-42.13-57.45-22.45-8.62-34,35.25-69,37-33.5,1.68-40.81-37.39-81.4-35.06-8.78.5-29.6,3.55-42.87,5.74-20.76,3.43-25.78,5.22-32.79,1.25-15.64-8.86-13-30.43-26.15-35.17-12.79-4.61-21.49,13.59-35.2,9.16-9.47-3.05-15.18-14.92-18.45-24.06a60.77,60.77,0,0,1-32.69,0c-7.21-2.07-13.79-6-26.66-13.87-26-15.85-28.13-20.54-36.71-20.48C139,79.16,139.3,92.68,124.4,94.64c-22.19,2.91-36.81-25.23-51.82-16-3,1.84-3.78,3.8-9.36,7.12-5.83,3.47-14.36,8.55-20.51,4.9C36.26,86.8,38.41,77,32.63,71.49c-4.09-3.86-12-5.37-28.44,4.29"/><polyline class="cls-3" points="562.85 68.44 627.26 81.05 643.42 84.24 746.51 116.98 909.61 145.82 1078.91 157.85 1255.87 172.63"/><path class="cls-3" d="M44.92,128.77v.63l8.52,1L64,131.66c5.12.62,5,.63,5.54.65,4,.17,4.93-.53,11.08-1.13a76.36,76.36,0,0,1,8.56-.32,23.26,23.26,0,0,1,6.88,1,11.65,11.65,0,0,1,3.14,1.38c1.57,1,2.62,2.29,2.84,2s-.23-.69-.43-1.55a7.12,7.12,0,0,1,.28-3.54,23.81,23.81,0,0,1,4-7.35,29.81,29.81,0,0,1,6-5.55,21.29,21.29,0,0,1,4.72-2.57,10.65,10.65,0,0,1,4.1-1,18.56,18.56,0,0,1,4.54.76c1.65.42,2.73.87,3.19.16a2.19,2.19,0,0,0,.21-1.39c-.1-1.59-.74-2.43-1.44-3.94a11.74,11.74,0,0,1-1.4-4.66,6.92,6.92,0,0,1,.62-3.48,5.41,5.41,0,0,1,3.25-2.51A27.42,27.42,0,0,1,136.18,97a73.45,73.45,0,0,0,10.12-2.15,47.61,47.61,0,0,0,8.1-3.09l102.49,56.46c3.62,7.95,7,9.35,7.79,10.36l4,1.07,22.92,10.91L318.88,184,335,191.35c1,1.39,7.59,1.86,9.22,1.65l22.42-4.6L384,178.57l328.68,171,11.19,6.25,19.52,5.43L773,369.51,806.73,378l18.83,4,16.65,3.54,14.14,2.66,11.26,1.68,20.69,3,12.15,1.82,11.43,1.72,21.74,3.2,15.31,2.21,9.07,1.33,15,2.17,16.3,2.37,16.87,2.49,15.32,2.29,18.33,2,14.19,1.54,10.59,1.13,8.16.88,8.6.78,13.77,1.61,11.63,1.25,13,1.39,14.4,1.56,4.89.26,11.79,1.67,4.64.62,5.79,1,6.73.87,6.78,1,11.34,1.58,23.19,4.39,14.79,2.93,14.06,2.87,19.15,5.53.07-274.52L1081.53,158l-169.47-12L748.8,117.09,645.6,84.35l-16.18-3.19L564.94,68.55,390.08,38.89l-32.61-3.77L315,29.76l-30.26-8A34.06,34.06,0,0,0,271,21.46l-6.87,1.25L249.36,21l-6.52-1.81-72.55-7.88-9.45-1.58c-5.78-1-5.58-.92-6.4-1.07-1.31-.24-6-1.11-8.42-1.48-.88-.13-1.82-.25-2.08-.28-.91-.12-1.36-.17-1.87-.21a8.37,8.37,0,0,0-2.48,0,4.42,4.42,0,0,0-3,2.18,8.69,8.69,0,0,0-.65,3.59,5.11,5.11,0,0,1-.39,2.64,2.1,2.1,0,0,1-1.2.86,2.9,2.9,0,0,1-2.13-.33,17.94,17.94,0,0,1-2.83-1.6c-.91-.65-1.83-1.18-3.67-2.24A45,45,0,0,0,119.88,9a37.75,37.75,0,0,0-3.95-1.42A33.88,33.88,0,0,0,112,6.7a10.47,10.47,0,0,0-3.93-.27,4.38,4.38,0,0,0-2.26,1,4.67,4.67,0,0,0-1.22,1.71,8.68,8.68,0,0,0-.4,4.22,17,17,0,0,0,.27,2.59,3.67,3.67,0,0,1,.06,2c-.18.41-.56,1-1,.95s-.45-.35-.9-.73a3.16,3.16,0,0,0-1.77-.65,4.38,4.38,0,0,0-2,.16,5.48,5.48,0,0,0-1.72.93,15.35,15.35,0,0,0-2.4,2.23c-1.12,1.17-1.05,1.24-1.45,1.51a4.16,4.16,0,0,1-2.78.52A8.92,8.92,0,0,1,87.34,22a17.5,17.5,0,0,1-3.91-2.46c-2.31-1.94-5-3.57-10.38-6.83A43,43,0,0,0,63.77,8c-3.7-1.22-7-2.31-11.07-1.27L47,8.93,40.87,22.25l-2.44,3.94L16.88,4.69,9.54.75,6.85,9.53V24.68L1,23.77l3.88,20.5L.26,66.9l5.12,8.66L1.21,106.05,18.6,120.42l6,6,13.2,2.09"/></g></g></svg>