<svg xmlns="http://www.w3.org/2000/svg" viewBox="0 0 1439.36 489.81"><defs><style>.cls-1{fill:#fca93e;}.cls-1,.cls-3,.cls-4{stroke:#000;stroke-miterlimit:10;stroke-width:0.5px;}.cls-2{fill:#653633;}.cls-3{fill:none;}.cls-4{fill:#5b2e2e;}</style></defs><title>Layer 23 (2)</title><g id="Layer_2" data-name="Layer 2"><g id="Layer_23" data-name="Layer 23"><path class="cls-1" d="M90,171.63l-5,.1-4.25.51-2.42-.43L75,171l-8-1.45-6.79.18-9.26.57-9.14.05-8.13-.59L25,168.62l-5.72-1-5.76-1.16-6.47-1.31-3.26-.45-1.88.22-1.36,1-.11-3.24V38.83l13.2,24.76-1.8,13,8.79,11.77-.2,16.43,22-.49L73,97.89l.2,3.21,13,2.64-.59,1.35L53,113.87c-.12.65-.43,2.7.51,3.88a2.72,2.72,0,0,0,2,.87c3.46.43,5.19.65,5.36.64,2.06-.15,5.72,0,12.71,1a8.22,8.22,0,0,1-1,4.27,5.73,5.73,0,0,1-6.39,2.69L64,128.6l-.13-5.07a4.41,4.41,0,0,0-2.06-2,4.23,4.23,0,0,0-3.29.48c-2.39,1-4.59-.45-7.55-1.9a166.79,166.79,0,0,0-15.81-6.34l1-2.61-10.46-2.77a17.53,17.53,0,0,0,1.81,10.21,11.79,11.79,0,0,0,8.2,6.18,10.28,10.28,0,0,0,6.13-.87l2.9,7.75,10.52,6.49L82.23,152.5c5.21.61,13.3,1.45,23.29,2.06,7.87.48,12,.52,21.69.87s16.8.74,31.16,1.5c14.6.79,24.12,1.41,37.5-.79,1.5-.24,2.73-.47,3.55-.63l-24.33-13.62a93.41,93.41,0,0,0-24-10c-4.62-1.18-7.57-1.51-7.55-2,.06-1,13.16-1.63,26.91,1.67a63.79,63.79,0,0,1,11.3,3.72c3.41,1.54,8.65,5.5,14.4,10.77l5.35,4.38,3,2.95,3.41,3.43,6.07.94,7.1,1.11,39.49,4.6,24.57.56L196.8,166.1,90,171.63"/><path class="cls-2" d="M85.58,104.55l-32.58,9a5.14,5.14,0,0,0,.3,3.63,2.8,2.8,0,0,0,1.85,1.17,19.88,19.88,0,0,0,5.38.67,59.43,59.43,0,0,1,7.71.37c2,.17,3.82.43,5.34.71L73,123.6A7,7,0,0,1,70,126.8a5.06,5.06,0,0,1-3.86.38L64,128.55l-.13-5.17c-1.12-1.69-2.09-2.12-2.79-2.19s-1.12.35-2.56.66a9,9,0,0,1-3.07.1,8.29,8.29,0,0,1-3.79-1.69l-16.5-6.82,1-2.66L25.76,108a17.37,17.37,0,0,0,0,5.15,16.35,16.35,0,0,0,2.54,6.47,12.62,12.62,0,0,0,5,4.31,10.09,10.09,0,0,0,5.55.85,10.33,10.33,0,0,0,3.08-.94l2.9,7.92L82.23,153l14.09,1.43,50.12,2.45,25.88,1.31,14.55-.33L199.42,156l-12-6.87L170,139.3l-11.78-5.21-8.15-2.47-6.57-1.77,6-.81,12.7.92,10.34,2.13,8.25,2.83,3.84,1.81,4.17-30.79-3.29-5-1.82-3.76-30.63-6.58h-47.5L86,103.57Z"/><path class="cls-3" d="M141.92,93.14a61.45,61.45,0,0,1-13.11,7.33c-6,2.23-11.54,4.19-17,1.17-1.2-.66-3.61-1.44-3.68-2.91C108,96.5,114,93.33,116,92.59"/><path class="cls-4" d="M144.09,101.32c6.87,11.12,10.31,13,12.17,12.15,1-.44,1.14-1.45,2.39-1.91,2.69-1,5.24,2.44,8.59,5.27,1.63,1.39,9.21,7.79,14.07,5.42,4.66-2.28,5.4-11.4,5.49-12.44.52-6.11-2.25-10.19-3.11-11.92L164.1,96.25l-18.29-2.2-1,.47,3.64,3.37Z"/><polyline class="cls-3" points="0.26 0 0.26 489.56 1439.36 489.56"/><path class="cls-3" d="M90,171.63l-5,.1-4.26.51-2.42-.43L74.91,171l-8-1.45-6.8.18-9.27.57-9.15.05-8.14-.59-8.72-1.09-5.72-1-5.77-1.16-6.48-1.31-3.27-.45-1.87.22-1.37,1-.11-3.24V38.83L13.47,63.59l-1.8,13,8.8,11.77-.2,16.43,22-.49,30.62-6.4.2,3.21,13,2.64-.59,1.35-32.63,8.78c-.12.65-.43,2.7.52,3.88a2.69,2.69,0,0,0,2,.87c3.46.43,5.19.65,5.37.64,2.06-.15,5.72,0,12.73,1a8.26,8.26,0,0,1-1,4.27,5.74,5.74,0,0,1-6.4,2.69l-2.13,1.35-.13-5.07a4.39,4.39,0,0,0-2.07-2,4.23,4.23,0,0,0-3.29.48c-2.4,1-4.59-.45-7.56-1.9A167.63,167.63,0,0,0,35,113.79l1-2.61L25.6,108.41a17.45,17.45,0,0,0,1.81,10.21,11.8,11.8,0,0,0,8.21,6.18,10.32,10.32,0,0,0,6.14-.87l2.9,7.75,10.54,6.49L82.14,152.5c5.22.61,13.33,1.45,23.33,2.06,7.88.48,12,.52,21.71.87s16.84.74,31.22,1.5c14.61.79,24.14,1.41,37.54-.79,1.51-.24,2.74-.47,3.56-.63l-24.37-13.62a93.38,93.38,0,0,0-24-10c-4.62-1.18-7.58-1.51-7.56-2,.06-1,13.18-1.63,26.95,1.67a63.71,63.71,0,0,1,11.31,3.72c3.42,1.54,8.66,5.5,14.42,10.77l5.36,4.38,3,2.95,3.42,3.43,6.07.94,7.11,1.11,39.55,4.6,24.6.56-88.48,2.11L90,171.63"/><path class="cls-3" d="M85.5,104.55l-32.63,9a5.2,5.2,0,0,0,.3,3.63A2.82,2.82,0,0,0,55,118.32a19.88,19.88,0,0,0,5.38.67,59.71,59.71,0,0,1,7.73.37c2,.17,3.82.43,5.35.71l-.63,3.53a7.11,7.11,0,0,1-2.94,3.2,5.09,5.09,0,0,1-3.87.38l-2.13,1.37-.13-5.17c-1.12-1.69-2.1-2.12-2.8-2.19s-1.11.35-2.56.66a9,9,0,0,1-3.07.1,8.31,8.31,0,0,1-3.8-1.69L35,113.44l1-2.66L25.6,108a17.37,17.37,0,0,0,0,5.15,16.35,16.35,0,0,0,2.54,6.47,12.76,12.76,0,0,0,5,4.31,10.13,10.13,0,0,0,5.56.85,10.43,10.43,0,0,0,3.08-.94l2.9,7.92L82.14,153l14.12,1.43,50.19,2.45,25.91,1.31,14.57-.33L199.5,156l-12.05-6.87-17.39-9.86-11.79-5.21-8.15-2.47-6.59-1.77,6-.81,12.71.92,10.36,2.13,8.26,2.83,3.85,1.81,4.17-30.79-3.29-5-1.82-3.76-30.67-6.58H105.51L85.92,103.57Z"/></g></g></svg>