<svg xmlns="http://www.w3.org/2000/svg" xmlns:xlink="http://www.w3.org/1999/xlink" viewBox="0 0 1439.98 392.77"><defs><style>.cls-1,.cls-8{fill:none;}.cls-2{clip-path:url(#clip-path);}.cls-3{fill:#fca93e;}.cls-4{fill:#f79b37;}.cls-5{fill:#f29130;}.cls-6{fill:#ea822d;}.cls-7{fill:#3e2327;}.cls-8{stroke:#000;stroke-miterlimit:10;}</style><clipPath id="clip-path"><path class="cls-1" d="M811.91,143.89a54.55,54.55,0,0,1-11.25-4.14c-13.41-6.67-22.77-18.48-24.65-21-1.37-1.83-2.91-3.23-4.39-5a15.19,15.19,0,0,0-2.24-2,2.88,2.88,0,0,0-1.87-.84c-.34.12-.82,0-1.46,1.35-.34.73-.5,1.69-.8,2.17a4.31,4.31,0,0,1-1.27,1.81c-1.24,1-2.71,1-5.1.49-4.46-.9-4-.71-7.16-1.56a31,31,0,0,0-5.55-.77,6,6,0,0,0-3.1.19,10.22,10.22,0,0,0-3.61,2.1,16.3,16.3,0,0,1-1.93,1.7,5.31,5.31,0,0,1-3.94.71,9,9,0,0,1-3.28-1.68c-1.22-.79-1.24-1.19-2.34-1.69a4.36,4.36,0,0,0-2.66-.73,6.64,6.64,0,0,0-3.23,2.16c-1.6,1.68-1.75,2.15-2.52,3-1.61,1.73-3.24,1-7.78.88a19.37,19.37,0,0,0-9.13,1.37c-1.44.64-2.86,1.53-4.89,1.26a4.86,4.86,0,0,1-2.52-1.66,8.53,8.53,0,0,1-2.18-4.8l-22.16.35-80.52-3.89-20-2.34-24.15-1.09-57-.08-24.11-1.38-5.3-1.51c-1.06-.28-1.23-.72-1.33-1.47s.32-.83.23-1.08c-.28-.73-7,1.51-11.86,3a21.39,21.39,0,0,1-8.31,1.74c-6.43-.16-11.24-.12-12.62-.11-5.33.07-22.87-3-76.58-2.12l-16-9.94-45.63-18-53.92-13-26.21-5.09-44-8.11-33.1-3.76-34.16-3.8L90,38.16,75.44,25.44l-13-7.29L42.53,11.46l-32-9.08L.91.6v257c177.77.43,234.69,0,234.69,0L375,257.2l1064.49.42V241.49L1420.4,236,1373,226.57l-49.55-6.84-120.72-12.81-168.47-24.54-51.41-10.82-39.46-10.18L906.7,151l-16.88-8.88.44,6,.17,2.13v2.86l-.33,2.74-1.11,3.2-1.81,2.3L884,163.33l-3.73,1.2-5.32-.05-6.65-1-7.62-2.76-9.08-4.18-18-7.09-10-3.18-11.75-2.34"/></clipPath></defs><title>Layer 19 (2)</title><g id="Layer_2" data-name="Layer 2"><g id="Layer_19" data-name="Layer 19"><g class="cls-2"><path class="cls-3" d="M812,143.89a54.45,54.45,0,0,1-11.26-4.14c-13.41-6.67-22.77-18.48-24.65-21-1.37-1.83-2.91-3.23-4.38-5a15.19,15.19,0,0,0-2.24-2,2.92,2.92,0,0,0-1.88-.84c-.34.12-.82,0-1.46,1.35-.34.73-.49,1.69-.79,2.17a4.39,4.39,0,0,1-1.28,1.81c-1.24,1-2.71,1-5.1.49-4.46-.9-4-.71-7.16-1.56a30.83,30.83,0,0,0-5.55-.77,6,6,0,0,0-3.1.19,10.39,10.39,0,0,0-3.61,2.1,16.3,16.3,0,0,1-1.93,1.7,5.28,5.28,0,0,1-3.93.71,9,9,0,0,1-3.29-1.68c-1.21-.79-1.24-1.19-2.34-1.69a4.36,4.36,0,0,0-2.66-.73,6.64,6.64,0,0,0-3.22,2.16c-1.6,1.68-1.76,2.15-2.53,3-1.61,1.73-3.24,1-7.78.88a19.31,19.31,0,0,0-9.12,1.37c-1.45.64-2.87,1.53-4.89,1.26A4.87,4.87,0,0,1,695.3,122a8.53,8.53,0,0,1-2.18-4.8l-22.15.35-80.52-3.89-20-2.34-24.15-1.09-57-.08-24.1-1.38-5.31-1.51c-1.05-.28-1.23-.72-1.33-1.47s.33-.83.23-1.08c-.28-.73-7,1.51-11.85,3a21.47,21.47,0,0,1-8.32,1.74c-6.42-.16-11.23-.12-12.62-.11-5.32.07-22.87-3-76.58-2.12l-16-9.94-45.64-18-53.92-13-26.2-5.09-44-8.11-33.11-3.76-34.16-3.8-6.29-7.38L75.5,25.44l-13-7.29L42.59,11.46l-32-9.08L1,.6v257c177.77.43,234.69,0,234.69,0l139.42-.42,1064.5.42V241.49L1420.46,236l-47.41-9.45-49.55-6.84-120.71-12.81-168.48-24.54-51.4-10.82-39.46-10.18L906.77,151l-16.89-8.88.44,6,.17,2.13v2.86l-.33,2.74-1.11,3.2-1.81,2.3-3.16,1.94-3.74,1.2-5.32-.05-6.65-1-7.62-2.76-9.07-4.18-17.95-7.09-10-3.18L812,143.89"/><path class="cls-4" d="M812.21,178.23A55.22,55.22,0,0,1,801,174.1c-13.41-6.67-22.78-18.49-24.65-21-1.37-1.83-2.91-3.23-4.39-4.94a14.74,14.74,0,0,0-2.24-2.06c-.73-.59-1.54-1-1.87-.83s-.82,0-1.46,1.34c-.35.74-.5,1.69-.8,2.17a4.25,4.25,0,0,1-1.27,1.81c-1.24,1-2.71,1-5.1.49-4.46-.9-4-.7-7.17-1.56a30.71,30.71,0,0,0-5.54-.77,6.13,6.13,0,0,0-3.1.19,10.22,10.22,0,0,0-3.61,2.1,16.3,16.3,0,0,1-1.93,1.7,5.31,5.31,0,0,1-3.94.71,8.91,8.91,0,0,1-3.28-1.68c-1.22-.79-1.24-1.19-2.34-1.69a4.53,4.53,0,0,0-2.67-.73,6.62,6.62,0,0,0-3.22,2.17c-1.6,1.67-1.75,2.14-2.52,3-1.61,1.72-3.24,1-7.78.88a19.47,19.47,0,0,0-9.13,1.36c-1.45.64-2.86,1.54-4.89,1.26a4.91,4.91,0,0,1-2.53-1.66,8.57,8.57,0,0,1-2.17-4.8l-22.16.35L590.68,148l-20-2.33-24.15-1.1-57-.07-24.1-1.39-5.3-1.5c-1.06-.29-1.23-.73-1.33-1.48-.08-.6.32-.82.22-1.08-.27-.73-7,1.51-11.85,2.95a21.39,21.39,0,0,1-8.31,1.74c-6.43-.16-11.24-.12-12.63-.1-5.32.07-22.87-3-76.57-2.13l-16-9.94-45.64-18-53.91-13-26.21-5.09-43.95-8.11-33.11-3.75-34.15-3.8L90.32,72.5,75.73,59.78l-13-7.29L42.82,45.8l-32-9.08L1.21,34.94V292c177.77.42,234.69,0,234.69,0l139.43-.43,1064.49.43V275.83l-19.13-5.46-47.4-9.46-49.55-6.84L1203,241.26l-168.48-24.54-51.4-10.81-39.46-10.19L907,185.38l-16.88-8.89.44,6,.17,2.13v2.85l-.33,2.74-1.12,3.2-1.81,2.3-3.16,2-3.73,1.19-5.33-.05-6.64-1L861,195l-9.08-4.19L834,183.75l-10-3.18-11.74-2.34"/><path class="cls-5" d="M812.21,231.24A54.55,54.55,0,0,1,801,227.1c-13.41-6.67-22.78-18.48-24.65-21-1.37-1.82-2.91-3.23-4.39-4.94a15.47,15.47,0,0,0-2.24-2.06c-.73-.59-1.54-1-1.87-.83s-.82,0-1.46,1.35c-.35.73-.5,1.69-.8,2.17a4.25,4.25,0,0,1-1.27,1.8c-1.24,1-2.71,1-5.1.5-4.46-.9-4-.71-7.17-1.57a32.6,32.6,0,0,0-5.54-.77,6.09,6.09,0,0,0-3.1.2,10.06,10.06,0,0,0-3.61,2.1,16.3,16.3,0,0,1-1.93,1.7,5.29,5.29,0,0,1-3.94.7,8.88,8.88,0,0,1-3.28-1.67c-1.22-.79-1.24-1.19-2.34-1.69a4.39,4.39,0,0,0-2.67-.73,6.64,6.64,0,0,0-3.22,2.16c-1.6,1.68-1.75,2.15-2.52,3-1.61,1.72-3.24,1-7.78.88a19.47,19.47,0,0,0-9.13,1.36c-1.45.65-2.86,1.54-4.89,1.27a4.91,4.91,0,0,1-2.53-1.66,8.56,8.56,0,0,1-2.17-4.81l-22.16.36L590.68,201l-20-2.33-24.15-1.09-57-.08-24.1-1.38-5.3-1.51c-1.06-.28-1.23-.72-1.33-1.47-.08-.6.32-.83.22-1.08-.27-.73-7,1.51-11.85,2.94a21.51,21.51,0,0,1-8.31,1.75c-6.43-.16-11.24-.13-12.63-.11-5.32.07-22.87-3-76.57-2.12l-16-9.94-45.64-18L234,153.65l-26.21-5.1-43.95-8.1-33.11-3.76-34.15-3.8-6.29-7.38L75.73,112.78l-13-7.28L42.82,98.8l-32-9.08L1.21,88V345c177.77.43,234.69,0,234.69,0l139.43-.42,1064.49.42V328.83l-19.13-5.46-47.4-9.45-49.55-6.85L1203,294.27l-168.48-24.55-51.4-10.81-39.46-10.19L907,238.38l-16.88-8.89.44,6,.17,2.13v2.86l-.33,2.74-1.12,3.19-1.81,2.31-3.16,1.94-3.73,1.19-5.33,0-6.64-1L861,248l-9.08-4.19L834,236.76l-10-3.19-11.74-2.33"/><path class="cls-6" d="M811.91,278.85a54.55,54.55,0,0,1-11.25-4.14c-13.41-6.67-22.77-18.48-24.65-21-1.37-1.83-2.91-3.23-4.39-4.95a15.19,15.19,0,0,0-2.24-2.05,2.88,2.88,0,0,0-1.87-.84c-.34.12-.82,0-1.46,1.35-.34.73-.5,1.69-.8,2.17a4.31,4.31,0,0,1-1.27,1.81c-1.24,1-2.71,1-5.1.49-4.46-.9-4-.71-7.16-1.56a31,31,0,0,0-5.55-.77,6,6,0,0,0-3.1.19,10.22,10.22,0,0,0-3.61,2.1,16.3,16.3,0,0,1-1.93,1.7,5.36,5.36,0,0,1-3.94.71,9,9,0,0,1-3.28-1.68c-1.22-.79-1.24-1.19-2.34-1.69a4.36,4.36,0,0,0-2.66-.73,6.64,6.64,0,0,0-3.23,2.16c-1.6,1.68-1.75,2.15-2.52,3-1.61,1.73-3.24,1-7.78.88a19.47,19.47,0,0,0-9.13,1.36c-1.44.65-2.86,1.54-4.89,1.27a4.86,4.86,0,0,1-2.52-1.66,8.53,8.53,0,0,1-2.18-4.8l-22.16.35-80.52-3.89-20-2.34-24.15-1.09-57-.08-24.11-1.38-5.3-1.51c-1.06-.28-1.23-.72-1.33-1.47-.08-.6.32-.83.23-1.08-.28-.73-7,1.51-11.86,3a21.39,21.39,0,0,1-8.31,1.74c-6.43-.16-11.24-.12-12.62-.11-5.33.07-22.87-3-76.58-2.12l-16-9.94-45.63-18-53.92-13-26.21-5.09-44-8.11-33.1-3.76-34.16-3.8L90,173.12,75.44,160.4l-13-7.29-19.91-6.69-32-9.09L.91,135.56v257c177.77.43,234.69,0,234.69,0L375,392.16l1064.49.42V376.45L1420.4,371,1373,361.53l-49.55-6.84-120.72-12.81-168.47-24.54-51.41-10.82-39.46-10.19L906.7,286l-16.88-8.88.44,6,.17,2.13v2.86l-.33,2.74-1.11,3.2-1.81,2.3L884,298.29l-3.73,1.2-5.32-.05-6.65-1-7.62-2.76-9.08-4.19-18-7.08-10-3.18-11.75-2.34"/></g><path class="cls-7" d="M560.73,111.57c-25.9-3.18-42,5.09-49.6,10.05-8.63,5.66-10.67,10-11.15,13.54-1.68,12.31,14.88,20.48,13.34,28.43-2,10.07-29.78,3.25-64.13,16.09-20,7.46-43.7,22.15-42.75,34.63.77,10.14,17.37,12.66,17.47,21.7.09,8.73-15.27,16.15-29,21.23H382.74L413,238C401.77,233,393.31,224,393.28,214.62c0-9,7.77-15.44,19.45-25.07A124.36,124.36,0,0,1,437.31,174c19.28-9.5,30.47-15,45.11-13.55,7.41.74,14.44,3.15,16.2-.68,1.7-3.67-3.46-8.8-4.2-18-.85-10.68,4.63-19.11,5.55-20.57,9.28-14.62,25.5-11.89,26.28-11.74"/><path class="cls-1" d="M226.12,257.7H811.57l.64-117.19a54.8,54.8,0,0,1-11.31-4.22c-13.47-6.8-23.31-18.62-25.19-21.17-1.38-1.86-3-3.41-4.51-5.16a20.26,20.26,0,0,0-2.12-1.88c-.74-.6-1.06-.81-1.4-.7s-.42.5-1.06,1.89a18.09,18.09,0,0,1-.9,1.78,8.13,8.13,0,0,1-1.56,1.79c-1.25,1-2.84.49-5.24,0-4.48-.92-3.91-.12-7.12-1a29.75,29.75,0,0,0-5.65-1.39,5.9,5.9,0,0,0-3.11.2,12.69,12.69,0,0,0-3.28,2.48c-1.56,1.4-1.4,1.44-2,1.78a6,6,0,0,1-4.26.7,8.91,8.91,0,0,1-3.35-1.59c-1.23-.8-1.35-1.47-2.46-2a4.32,4.32,0,0,0-2.54-.4c-.3,0-1.41.28-3.11,2.08s-1.76,2.73-2.54,3.57c-1.62,1.76-3.38,0-7.94-.1a19.32,19.32,0,0,0-9.17,1.39c-1.45.66-2.88,1.57-4.91,1.29a5.1,5.1,0,0,1-3.11-1.48,7.76,7.76,0,0,1-2-4.77l-21.91,0-80.84-3.3-20.3-2.28-24.13-.72H488.1l-24.34-2.43-6.43-1c-1.07-.29-2.1-.75-2.2-1.52-.08-.61.5-1,.4-1.26-.28-.74-5.34,1.59-10.2,3.06a58.12,58.12,0,0,1-8.1,1.71,40.38,40.38,0,0,1-12.87-.42c-5.51-.94-23.79-1.64-77.71-.81l-16.74-9.25L284.29,76.73l-53-15.32-5.17-1.16Z"/><path class="cls-8" d="M811.71,143.89a54.45,54.45,0,0,1-11.26-4.14c-13.42-6.67-22.78-18.48-24.66-21-1.37-1.83-2.91-3.23-4.38-5a15.82,15.82,0,0,0-2.25-2,2.88,2.88,0,0,0-1.87-.84c-.34.12-.82,0-1.46,1.35-.34.73-.5,1.69-.8,2.17a4.31,4.31,0,0,1-1.27,1.81c-1.24,1-2.71,1-5.1.49-4.46-.9-4-.71-7.17-1.56a30.83,30.83,0,0,0-5.55-.77,6,6,0,0,0-3.09.19,10.32,10.32,0,0,0-3.62,2.1,16.3,16.3,0,0,1-1.93,1.7,5.28,5.28,0,0,1-3.93.71,9,9,0,0,1-3.29-1.68c-1.22-.79-1.24-1.19-2.34-1.69a4.36,4.36,0,0,0-2.66-.73,6.64,6.64,0,0,0-3.23,2.16c-1.6,1.68-1.75,2.15-2.52,3-1.61,1.73-3.24,1-7.78.88a19.35,19.35,0,0,0-9.13,1.37c-1.45.64-2.87,1.53-4.89,1.26A4.87,4.87,0,0,1,695,122a8.53,8.53,0,0,1-2.18-4.8l-22.16.35-80.54-3.89-20-2.34L546,110.23l-57.05-.08-24.11-1.38-5.31-1.51c-1.05-.28-1.23-.72-1.33-1.47s.33-.83.23-1.08c-.28-.73-7,1.51-11.86,3a21.39,21.39,0,0,1-8.31,1.74c-6.43-.16-11.24-.12-12.63-.11-5.32.07-22.87-3-76.59-2.12L333,97.23l-45.64-18-53.93-13-26.22-5.09-44-8.11-33.11-3.76-34.17-3.8-6.29-7.38L75,25.44,62,18.15,42.12,11.46l-32-9.08L.5.6v257c177.81.43,234.75,0,234.75,0l139.46-.42,1064.77.42V241.49L1420.34,236l-47.42-9.45-49.56-6.84-120.74-12.81-168.53-24.54-51.41-10.82-39.47-10.18L906.52,151l-16.89-8.88.44,6,.17,2.13v2.86l-.33,2.74-1.11,3.2-1.81,2.3-3.17,1.94-3.73,1.2-5.33-.05-6.64-1-7.63-2.76-9.07-4.18-18-7.09-10-3.18-11.74-2.34"/></g></g></svg>