<svg xmlns="http://www.w3.org/2000/svg" xmlns:xlink="http://www.w3.org/1999/xlink" viewBox="0 0 1707.6 1643.73"><defs><style>.cls-1{fill:none;}.cls-2{clip-path:url(#clip-path);}.cls-3{fill:#1f5999;}.cls-4{fill:#2f609d;}.cls-5{fill:#4778b3;}.cls-6{fill:#5380b7;}.cls-7{fill:#5f8dc0;}.cls-8{fill:#6c97c2;}.cls-9{fill:#89adce;}.cls-10{fill:#9ebadb;}.cls-11{fill:#b5cae0;}.cls-12{fill:#c3d2e0;}</style><clipPath id="clip-path" transform="translate(117.05 505.2)"><path class="cls-1" d="M454.29,433.12a18.47,18.47,0,0,1,8.47,1.92,19,19,0,0,1,3.75,2.66,17.39,17.39,0,0,0,1.82,1.75,8.35,8.35,0,0,0,3.56,1.53l2-.29c6-3.47,11.31-4.9,14.1-4.76a11.06,11.06,0,0,1,4.35,1c1.17.63,1.27,1.08,2.36,1.48a7,7,0,0,0,4.33-.05c2-.58,2-1.38,3.72-1.51a12.18,12.18,0,0,1,2.79.23,10.09,10.09,0,0,1,1.15.31,11,11,0,0,0,5.53.49c1.38-.33,1.59-.78,3.08-1a13.68,13.68,0,0,1,4.82.45c2.31.44,2.93.83,4.15.49a10.12,10.12,0,0,1,1.8-.47,4.7,4.7,0,0,1,2.59.23,5.51,5.51,0,0,1,1.88,1.81c.85,1.07,1,1.47,1.44,2.08a6.77,6.77,0,0,0,3.3,2.2l3.26.07,4-1.24c81.61-7.81,111.52-8.83,119.37-7.36,1.3.24,4.49.73,10.87,1.72,5.79.89,12.49,1.88,17.91,1.41a34.93,34.93,0,0,0,5-.62c2.23-.54,3-1.1,4.7-.9a7.5,7.5,0,0,1,3.37,1.34c1.18.82,1.06,1.23,2.55,2.62,1.34,1.27,2.37,2.24,3.85,2.46,1,.15,1.81-.15,3.4-.74,2.9-1.08,3-1.93,4.63-2.16a7.45,7.45,0,0,1,4.84,1.39c1.69,1,1.73,1.73,3.44,3.29a16.48,16.48,0,0,0,6.75,3.79c1.88.49,3.39.42,6.4.27,4.1-.19,4.15-.78,6.23-.54a13.4,13.4,0,0,1,7.3,3.49,14.44,14.44,0,0,1,4,5.94l8.78-4.33,3.26-2.81c2.33-.41,5.84-1.06,10.1-2,9.65-2.11,15.33-4,20.32-5.35,11-3.07,19.56-4.15,33.55-5.93,12.2-1.54,11-.74,23.44-2.36,13.4-1.75,20.11-2.62,29.37-4.95s13.25-4.15,22.24-5a113.72,113.72,0,0,1,13.44-.25c11.41.21,15,1.09,23.08,1.5,11.16.56,19.63-.37,29.54-1.46,10.21-1.12,10.89-1.84,24.67-3.33,11.26-1.21,16.54-1.66,16.54-1.66,8.48-.71,10.41-.66,15.06-1.55a91.64,91.64,0,0,0,13.44-3.69c6.55-2.33,5.94-2.92,10.52-4.39a51.55,51.55,0,0,1,19.22-2.14,52.26,52.26,0,0,1,12,2.36l35.68-2.95,86.87-7.07,83.24-5.83h88l22,3.47,38.18-1.57V0H0V484.62c.13-.29.33-.71.6-1.19a14.5,14.5,0,0,1,2.53-3.35c1.74-1.65,4.14-2,5.76-2.27a97.38,97.38,0,0,1,13.47-.92c6.53,0,9.8,0,12.47.39,4,.59,5.31,1.25,9.12,1.41a39.15,39.15,0,0,0,10-.94,44.83,44.83,0,0,0,10.85-4.07c2.44-1.21,2.33-1.35,12-7.15,4.74-2.86,5.64-3.35,6.75-3.91a46.42,46.42,0,0,1,9.93-3.9c3.84-.94,7-1,11.62-1.18,5.11-.16,6.26.24,9.45-.52a26.73,26.73,0,0,0,6.92-2.71c1.07-.61,1.34-.85,6.22-4.38,4.13-3,5.33-3.8,7.37-4.47a12.72,12.72,0,0,1,4.44-.71,11.72,11.72,0,0,1,4.67,1.18,25.89,25.89,0,0,1,3.33,2.42,30.13,30.13,0,0,0,4,2.73,13.87,13.87,0,0,0,6.29,1.33,16.35,16.35,0,0,0,6.31-1.32c.54-.22,2.07-.86,6-3.71,4.59-3.33,5.51-4.64,8.74-6.15a14.45,14.45,0,0,1,4.52-1.34,13.86,13.86,0,0,1,3.74.07,101.66,101.66,0,0,1,14.18,5.57c2.89,1.43,6.1,2.15,9,3.6a6.75,6.75,0,0,0,7.12-.35L220.2,446l2-2.79,1.63-1.82a6,6,0,0,1,2.78-1.44,6.48,6.48,0,0,1,3.36.25c1.56.47,2,1.08,3.4,1.84a15.23,15.23,0,0,0,6.6,1.7,17.39,17.39,0,0,0,5-1c5.25-1.51,6-2.59,9.17-2.83a15,15,0,0,1,4.85.43,14.81,14.81,0,0,1,5.21,2.56l3.65,2,4.06,1.61,5.07,1.28,5.66.77,7.35.33,16.41-.26,19.18-.73,19-1.12,16.82-2L454,433.07"/></clipPath></defs><title>Layer 30 (2)</title><g id="Layer_2" data-name="Layer 2"><g id="Layer_30" data-name="Layer 30"><g class="cls-2"><path class="cls-3" d="M246.29-418.31C158.45-361.54,151.63-362,131.58-338c-37.14,44.48-30.21,65.95-81.44,173.71C-9-40-32.39-38.68-38.15,22.61-45.13,96.93-13.52,125-31.49,184c-15.8,51.93-44.23,43.24-68.38,99.26-23.95,55.54-18,115.11-10.94,185.64,8.69,86.93,15.35,153.55,49.09,178.18,25.83,18.85,54.81,3.79,162.51-69C235.58,487,303,441.4,320.68,415.78c74.7-108,60.48-201.81,138-246.69,39.39-22.8,70.75-14.62,86.1-50.09,15.51-35.85-3.49-74.32-23.32-155-32.19-131-10-142.73-43.41-284.94-25.62-108.85-38.87-165.16-73.8-181.21C379.62-513.45,365.16-495.13,246.29-418.31Z" transform="translate(117.05 505.2)"/><path class="cls-4" d="M365.23-364.21c-87.84,56.77-94.66,56.27-114.71,80.28-37.14,44.48-30.21,66-81.44,173.72C110,14.14,86.55,15.42,80.79,76.72c-7,74.31,24.63,102.39,6.66,161.42-15.8,51.92-44.23,43.23-68.38,99.25C-4.88,392.93,1.08,452.5,8.13,523,16.82,610,23.48,676.59,57.22,701.21c25.83,18.85,54.81,3.79,162.51-69C354.52,541.06,421.91,495.5,439.62,469.88c74.7-108,60.48-201.81,138-246.69,39.39-22.8,70.75-14.62,86.1-50.09,15.51-35.85-3.49-74.32-23.32-155-32.19-131-9.95-142.72-43.41-284.94C571.38-375.68,558.12-432,523.19-448,498.56-459.35,484.1-441,365.23-364.21Z" transform="translate(117.05 505.2)"/><path class="cls-5" d="M491.74-280.78C403.9-224,397.07-224.5,377-200.5,339.89-156,346.82-134.55,295.59-26.78,236.48,97.57,213.06,98.85,207.3,160.15c-7,74.31,24.63,102.39,6.66,161.42-15.8,51.92-44.23,43.23-68.39,99.25-23.94,55.54-18,115.11-10.94,185.64C143.33,693.4,150,760,183.73,784.64c25.83,18.85,54.81,3.79,162.51-69C481,624.49,548.42,578.93,566.13,553.31c74.7-108,60.48-201.81,138-246.69,39.39-22.8,70.75-14.62,86.1-50.09,15.51-35.85-3.49-74.32-23.32-155C734.72-29.42,757-41.18,723.5-183.4c-25.62-108.85-38.87-165.16-73.8-181.21C625.07-375.92,610.61-357.6,491.74-280.78Z" transform="translate(117.05 505.2)"/><path class="cls-6" d="M641.07-280.52c-87.84,56.77-94.66,56.28-114.71,80.28-37.14,44.48-30.21,66-81.44,173.72C385.81,97.83,362.39,99.11,356.63,160.41c-7,74.32,24.63,102.39,6.66,161.42-15.8,51.93-44.23,43.23-68.38,99.25-24,55.54-18,115.11-10.94,185.64,8.69,86.94,15.35,153.56,49.09,178.18,25.83,18.85,54.81,3.8,162.51-69,134.79-91.12,202.18-136.69,219.89-162.31,74.7-108,60.48-201.81,138-246.68,39.39-22.81,70.75-14.62,86.1-50.1,15.51-35.84-3.49-74.32-23.32-155-32.19-131-10-142.72-43.41-284.93C847.22-292,834-348.3,799-364.35,774.4-375.66,759.94-357.34,641.07-280.52Z" transform="translate(117.05 505.2)"/><path class="cls-7" d="M772.73-250.66c-87.84,56.77-94.67,56.28-114.71,80.28-37.14,44.48-30.21,65.95-81.44,173.72C517.47,127.69,494.05,129,488.29,190.27c-7,74.32,24.63,102.39,6.66,161.42-15.81,51.93-44.24,43.23-68.39,99.25-23.94,55.54-18,115.11-10.94,185.64,8.7,86.94,15.36,153.56,49.09,178.18,25.84,18.85,54.81,3.8,162.52-69C762,654.62,829.41,609.05,847.12,583.43c74.7-108,60.48-201.81,138-246.68,39.39-22.81,70.75-14.62,86.09-50.1,15.52-35.84-3.48-74.32-23.31-155-32.2-131-10-142.72-43.42-284.93-25.61-108.85-38.86-165.17-73.8-181.22C906.05-345.8,891.6-327.48,772.73-250.66Z" transform="translate(117.05 505.2)"/><path class="cls-8" d="M918.28-235c-89.07,57.23-96,56.74-116.31,80.93-37.67,44.83-30.66,66.45-82.62,175-60,125.3-83.72,126.6-89.58,188.35-7.1,74.86,24.94,103.13,6.7,162.6-16,52.32-44.86,43.57-69.36,100-24.3,56-18.28,116-11.16,187,8.79,87.57,15.52,154.68,49.71,179.46,26.18,19,55.56,3.8,164.78-69.61,136.67-91.86,205-137.8,223-163.62,75.76-108.88,61.38-203.33,140-248.57,39.94-23,71.72-14.77,87.3-50.51,15.73-36.12-3.51-74.86-23.59-156.11-32.59-131.91-10-143.77-43.91-287-25.93-109.64-39.35-166.36-74.76-182.51C1053.48-330.95,1038.82-312.49,918.28-235Z" transform="translate(117.05 505.2)"/><path class="cls-1" d="M160.17-185.61l963.38-79.11,47.35,894-23,6.44a151.29,151.29,0,0,0-30.5,15.78c-10.14,6.81-15,11.79-28.41,22.32-11.49,9-21.09,15.6-27.17,19.65l-25.5-7.84a102.22,102.22,0,0,0-33.9,3.79,113.6,113.6,0,0,0-34.87,17.11c-16.77,11.77-64.81,29.25-194.32,55.44-9.06-8.31-16.81-10.52-21.81-11.13-3.14-.38-5.32-.15-21.48,2.49-10.73,1.76-15.49,2.59-18.61,3.1-12,1.93-16.1,1.62-32,3-28.09,2.38-27.49,4.37-47.61,5.19-18.93.77-25.82.67-25.82.67-8.73-.12-13.36-.55-21,.67a85.32,85.32,0,0,0-16.76,4.59,112.19,112.19,0,0,0-26.49,14.56c-10.46,7.3-38.69-4-114.29-79.9l-40.24,8.67C359.4,717,339.28,719.64,324,722.2a140.19,140.19,0,0,1-27,1.41c-10.3-.42-16.06-1.79-21.49-4.21a53.93,53.93,0,0,1-13.82-9c-6.16-2.27-10.67-1.68-13.58-.79-4.89,1.49-6,4-13.49,7.21-3.9,1.65-6.8,2.87-10.65,2.78-5.1-.11-11.15-4.06-11.92-4.55a15.06,15.06,0,0,0-1.33-.78,11.31,11.31,0,0,0-1.54-.71,8.78,8.78,0,0,0-1.44-.38Z" transform="translate(117.05 505.2)"/><path class="cls-9" d="M1043.06-201.51c-88.08,57-94.92,56.47-115,80.56C890.81-76.3,897.76-54.76,846.41,53.41,787.15,178.22,763.67,179.5,757.89,241c-7,74.6,24.7,102.78,6.69,162-15.84,52.12-44.35,43.39-68.56,99.62-24,55.75-18,115.54-11,186.33,8.72,87.26,15.41,154.13,49.23,178.85,25.9,18.92,55,3.81,162.94-69.27,135.13-91.45,202.7-137.17,220.46-162.89,74.88-108.44,60.62-202.55,138.34-247.59,39.5-22.88,70.94-14.67,86.32-50.27,15.55-36-3.49-74.6-23.38-155.57-32.29-131.45-10-143.26-43.55-286-25.68-109.26-39-165.78-74-181.89C1176.72-297,1162.23-278.61,1043.06-201.51Z" transform="translate(117.05 505.2)"/><path class="cls-10" d="M1145.63-130.21c-87.85,56.77-94.67,56.27-114.71,80.28-37.14,44.48-30.22,66-81.44,173.71C890.37,248.14,867,249.41,861.19,310.71c-7,74.32,24.62,102.39,6.66,161.42-15.81,51.93-44.24,43.23-68.39,99.25-24,55.55-18,115.12-10.94,185.64,8.69,86.94,15.35,153.56,49.09,178.18,25.83,18.86,54.81,3.8,162.52-69C1134.91,775.06,1202.3,729.5,1220,703.88c74.7-108,60.49-201.82,138-246.69,39.39-22.81,70.75-14.62,86.1-50.09,15.51-35.85-3.48-74.32-23.31-155-32.2-131-10-142.73-43.42-284.94C1351.77-141.68,1338.52-198,1303.58-214,1279-225.36,1264.5-207,1145.63-130.21Z" transform="translate(117.05 505.2)"/><path class="cls-11" d="M1240.49-66.94c-87.84,56.77-94.66,56.27-114.71,80.28-37.14,44.48-30.21,66-81.44,173.71C985.23,311.41,961.81,312.69,956.05,374c-7,74.32,24.63,102.39,6.66,161.42-15.8,51.93-44.23,43.23-68.38,99.25-24,55.55-18,115.12-10.94,185.64,8.69,86.94,15.35,153.56,49.09,178.18,25.83,18.86,54.81,3.8,162.51-69,134.79-91.12,202.18-136.68,219.89-162.3,74.7-108,60.48-201.82,138-246.69,39.39-22.8,70.75-14.62,86.1-50.09,15.51-35.85-3.48-74.32-23.32-155-32.19-131-10-142.73-43.41-284.94-25.61-108.85-38.86-165.16-73.8-181.21C1373.82-162.09,1359.36-143.76,1240.49-66.94Z" transform="translate(117.05 505.2)"/><path class="cls-12" d="M1313.77,91.35c-90.65,49.45-97.44,48.4-118.7,70.71-39.41,41.34-33.64,63.33-90.45,166.66-65.55,119.25-89,118.6-98,179.29-10.89,73.59,19.17,104.19-1.88,161.62-18.52,50.52-46.43,39.51-73.48,93.43-26.83,53.47-24,113.39-20.73,184.34,4.08,87.47,7.2,154.49,39.57,181.82,24.78,20.93,54.49,8.28,165.81-55.55,139.31-79.89,209-119.83,228-143.94,80.24-101.69,71-196.42,150.73-234.85,40.51-19.53,71.37-8.79,88.56-42.93,17.37-34.5.45-74.44-15.07-156.56-25.21-133.32-2.39-143.23-28.26-287.88-19.81-110.71-30.06-168-64.07-186.87C1451.83,7.34,1436.44,24.44,1313.77,91.35Z" transform="translate(117.05 505.2)"/></g></g></g></svg>