<svg xmlns="http://www.w3.org/2000/svg" viewBox="0 0 653.9 148.96"><defs><style>.cls-1{fill:#723838;}.cls-2{fill:none;stroke:#000;stroke-miterlimit:10;stroke-width:0.5px;}</style></defs><title>Layer 20 (2)</title><g id="Layer_2" data-name="Layer 2"><g id="Layer_20" data-name="Layer 20"><path class="cls-1" d="M.82,40.19c17.09,4.43,32.13,9.14,43,12.4C59.38,57.25,66.58,58.42,73.39,64,84.27,73,91.09,78.69,96.11,85.14l67.35,7.56c33.91,5,62.28,11.1,83.83,16.36,38.34,9.34,56.68,16.45,69,21.81a342.13,342.13,0,0,1,32.5,15.89l92.58,1.93,16.73-3.45a3.88,3.88,0,0,0,1.22-.48L464,142c12.39-5.46,22.72-8.65,35.48-12.1,19.53-5.28,27.28-7.35,41.55-8.9a150.82,150.82,0,0,1,24.8-1c19.49.61,21.5,2.68,43.82,3.8,9.22.47,12.51.86,21.86,2,4.16.49,22.38.71,22.43.28s-17.41-2.13-24.88-6.46a62.14,62.14,0,0,1-11.94-9.09c-3.07-2.9-4-6.94-6.3-7.15s-2.82,1.53-5.15,2.76a15.75,15.75,0,0,1-4.4,1.83c-3.69.9-5.18,2.31-15.51,4.4-9.73,2-13.91-.19-13.91-.19-10.85-2.91-20.33-4.63-31.15-7.65a249.51,249.51,0,0,0-46.1-7.86,239.1,239.1,0,0,0-26.08-1c-7.25-2.43-14.86-2.94-19.74-3.37-5.9-.52-8.33-1-14.46-.53-2.13.17-3.64-.09-6,.7-.91.3-2.75,1.09-5,2.08-3.45,1.48-3.88.94-4.87,1.33s-2.66,1.63-8.05,1.83c-4.72.17-8.8,1.14-13.1.33-7.78-1.47-7.07-3.71-16.32-5.83a59.7,59.7,0,0,0-10.37-1.71,56.4,56.4,0,0,0-8.56.17c-5,.64-5.86,1.12-10.42,1.65-4,.47-6.3,1.39-8.59,1.14-3.74-.42-6-.53-8.13-2.39-3.39-3-6.83-4.2-11-9.85-1.11-1.51-4.28-3-3.45-5.72.54-1.76,2.85-6.18,1.64-6.51-3.56-1-4.61-.41-7.74.5a41.88,41.88,0,0,1-10.34,2c-4.66.48-4.83.88-10,1.63-4.67.69-6.66.88-19.25,1.28-8.72.28-7.85-.38-10.44-.35-10.2.14-16.29.31-25.8-.69C224.6,71.84,221,72.07,213.09,70.4c-18.63-4-32.18-6.53-45.91-10.82-44.55-13.92-25.92-9.15-78.64-28.47-18.46-6.76-44.92-19.83-77.4-28C7.52,2.24,2.09.72.28,0"/><path class="cls-2" d="M.09,38.27c17.09,4.42,31.44,8.55,42.34,11.82,15.51,4.65,21.62,6.84,28.94,11.36A95.35,95.35,0,0,1,96.23,84.17l65.35,7.27c33.9,5,62.25,11.11,83.79,16.36,38.32,9.35,56.65,16.46,69,21.82a360.46,360.46,0,0,1,33.76,16.81l90.9,2.28,18.4-5,3.87-2.51c12.39-5.46,22.84-8.36,35.6-11.81,19.51-5.28,27.49-7.51,41.75-9.06,8.27-.9,13.65-1.81,24.8-1.47,19.47.61,21.61,2.89,43.93,4,9.21.47,13.7.43,23.05,1.52,4.16.48,17.64,1.43,17.69,1s-13.74-2.78-21.21-7.12c-4.49-2.6-7.86-4.55-11.12-8.85-2.64-3.49-3.46-6.19-5.77-6.4s-4.18,2.53-6.51,3.76a16.08,16.08,0,0,1-4.43,1.85c-3.68.89-5,1.68-15.37,3.77-9.72,2-13.54-.53-13.54-.53-10.84-2.9-21.87-4.72-32.69-7.74A219,219,0,0,0,492.35,97a248.66,248.66,0,0,0-25.76-.45,80.36,80.36,0,0,0-18.46-3.87A87,87,0,0,0,432,93a25.09,25.09,0,0,0-6.44,1.19A26.23,26.23,0,0,0,421,95.52a38.91,38.91,0,0,1-4.94,1.76c-1.08.43-2.85,1.46-8.23,1.66-4.73.17-8.12.77-12.42,0-7.77-1.47-7.58-4-16.82-6.1a45.93,45.93,0,0,0-10.57-1.27,63.29,63.29,0,0,0-8.27.75c-5,.64-5.64.5-10.19,1-4,.46-6,1.22-8.27,1a26.3,26.3,0,0,1-8.87-2.83,28.76,28.76,0,0,1-12.58-11.35c-1-1.64-2.26-3.2-1.44-5.88.54-1.76,3.21-3.7,3-4.15-.25-.63-5.63.47-8.76,1.38-3.92,1.14-5.16.89-10.81,1.47-4.66.47-4.66,1-9.78,1.71-4.67.68-6.61.56-19.2,1-8.71.28-7.68.33-10.27.37-10.19.14-16.62-.86-26.12-1.86-13.9-1.47-17.24-1.15-25.12-2.82-18.61-4-32.2-6.47-45.92-10.76C121,46.62,139.24,51,86.55,31.63,68.1,24.86,41.91,12.34,9.44,4.2A77.22,77.22,0,0,1,.09,1"/></g></g></svg>