<svg xmlns="http://www.w3.org/2000/svg" xmlns:xlink="http://www.w3.org/1999/xlink" viewBox="0 0 557.5 138.18"><defs><style>.cls-1{fill:none;}.cls-2{clip-path:url(#clip-path);}.cls-3{fill:#fca93e;stroke:#000;stroke-miterlimit:10;stroke-width:0.5px;}.cls-4{fill:#f79b37;}.cls-5{fill:#f29130;}.cls-6{fill:#ea822d;}</style><clipPath id="clip-path" transform="translate(0.38 0.49)"><path class="cls-1" d="M0,15.6C39.75,26.76,71,40.18,92.6,49.32c29.2,12.37,42.84,18.26,66.79,25.3,20.66,6.08,43.33,12.44,71.83,15.3,21.48,2.15,23.62,2.26,58.79,1.28l12.82-2.12,7.43-.83,7.36-1.81L319.8,86,322,84.62l7.65-2.74L337.81,80l7.68-.94,8.22-.44,12.88.2,12.07-.7,11.48-1.47,12.47-3.48L414.54,68l6.93-4,8.19-6L435,54.43l6.87-3.51,5.68-1.9,7.9-1.49,10.07-.22,6.57.28,14.84.53,17.78-.7,12.54-1.52,6.59-1.11-6.74-1.85-7-3.45-4.26-2L457.44,13.66l-5.88-2.87L447,9.64l-4.06-4L439.64,0l-1.86,3.07L435.9,4.93A6.58,6.58,0,0,1,433,6.35a7.55,7.55,0,0,1-3.23-.29c-2.83-.61-4.6-1.11-4.6-1.11-1.18-.33-2.14-.62-2.78-.81l-9.21-2.31L404,.31,398,.06l-6.37.49L386.2,1.62l-5.92,1.29-5.53.1L368,1.38l-.5.26-6.89.43-20.18.79-20,2.73-7.33,1.08-7.36.07L292.13,8.19l-4,.33-2.91.64c-.13,0-.68.17-.78.6s.1.65.6,1.24a8.54,8.54,0,0,0,2.59,2.05c1.18.63,1.89.95,2.43,1.21a12.66,12.66,0,0,1,3.62,2.27A10.39,10.39,0,0,1,296,20.92a12.83,12.83,0,0,1,.36,1.42l-24.34-7,.48-2.08,3-.48,2-.44a.43.43,0,0,0,.1-.44.27.27,0,0,0-.44-.12l-1.76-.33-2.28-.22L266.58,11l-15,.24-9.18.87L227.2,14.17l-13.73,3.17-1,.41-9.91-.36L208.45,22V23.5l-3.2.95-59.13-8-9-1.22L109.8,13.31,0,7.62Z"/></clipPath></defs><title>Layer 21 (2)</title><g id="Layer_2" data-name="Layer 2"><g id="Layer_21" data-name="Layer 21"><g class="cls-2"><path class="cls-3" d="M-.13,15.6c39.76,11.16,71,24.58,92.6,33.72,29.2,12.37,42.84,18.26,66.79,25.3,20.67,6.08,43.33,12.44,71.84,15.3,21.47,2.15,23.61,2.26,58.79,1.28l12.82-2.12,7.42-.83,7.37-1.81,2.18-.44,2.21-1.38,7.65-2.74L337.68,80l7.68-.94,8.23-.44,12.88.2,12.07-.7L390,76.69l12.47-3.48L414.41,68l6.93-4,8.19-6,5.31-3.58,6.87-3.51L447.4,49l7.89-1.49,10.08-.22,6.57.28,14.83.53,17.78-.7,12.54-1.52,6.59-1.11-6.74-1.85-7-3.45-4.27-2L457.31,13.66l-5.88-2.87-4.54-1.15-4.07-4L439.51,0l-1.86,3.07-1.88,1.86a6.58,6.58,0,0,1-2.91,1.42,7.51,7.51,0,0,1-3.22-.29C426.8,5.45,425,5,425,5c-1.18-.33-2.14-.62-2.78-.81L413,1.83,403.85.31,397.91.06l-6.37.49-5.47,1.07-5.91,1.29-5.54.1-6.77-1.63-.5.26-6.89.43-20.18.79-20,2.73-7.33,1.08-7.35.07L292,8.19l-4,.33-2.92.64c-.13,0-.67.17-.78.6s.1.65.6,1.24a8.54,8.54,0,0,0,2.59,2.05c1.19.63,1.9.95,2.44,1.21a12.59,12.59,0,0,1,3.61,2.27,10.55,10.55,0,0,1,2.33,4.39c.17.57.29,1.06.36,1.42l-24.34-7,.47-2.08,3-.48,2-.44a.46.46,0,0,0,.1-.44.28.28,0,0,0-.45-.12l-1.75-.33L273,11.25,266.46,11l-15,.24-9.19.87-15.16,2.09-13.74,3.17-1,.41-9.91-.36L208.32,22V23.5l-3.2.95-59.12-8-9-1.22-27.33-1.89L-.13,7.62Z" transform="translate(0.38 0.49)"/><path class="cls-4" d="M6.63,31c39.75,11.16,71,24.58,92.59,33.72C128.42,77.09,142.06,83,166,90c20.66,6.08,43.33,12.44,71.83,15.3,21.48,2.15,23.62,2.26,58.79,1.28l12.82-2.12,7.43-.83,7.36-1.81,2.18-.44,2.21-1.37,7.65-2.75,8.15-1.84,7.67-.94,8.23-.44,12.88.21,12.07-.71,11.48-1.47,12.47-3.48,11.93-5.21,6.93-4,8.19-6,5.31-3.58,6.87-3.51,5.68-1.9,7.9-1.49,10.07-.22,6.57.28,14.84.53,17.78-.69,12.54-1.53,6.58-1.11-6.73-1.85-7-3.45-4.26-2L464.06,29.06l-5.87-2.87L453.64,25l-4.06-4-3.31-5.64-1.86,3.07-1.89,1.86a6.48,6.48,0,0,1-2.9,1.42,7.54,7.54,0,0,1-3.23-.29c-2.83-.6-4.6-1.11-4.6-1.11-1.18-.33-2.15-.62-2.78-.81l-9.21-2.31-9.19-1.52-5.94-.25L398.3,16,392.82,17l-5.91,1.29-5.53.1-6.78-1.63-.5.26-6.89.43L347,18.26,327,21l-7.32,1.08-7.36.07-13.57,1.45-4,.33-2.92.65c-.12,0-.67.16-.77.59s.09.66.6,1.24a8.54,8.54,0,0,0,2.59,2.05c1.18.63,1.89.95,2.43,1.22a12.24,12.24,0,0,1,3.61,2.26,10.34,10.34,0,0,1,2.33,4.4,11.81,11.81,0,0,1,.36,1.42l-24.34-7,.48-2.08,3-.48,2-.44a.43.43,0,0,0,.1-.44.28.28,0,0,0-.45-.11L282,26.87l-2.28-.22-6.54-.28-15,.24-9.19.88-15.16,2.08-13.74,3.17-1,.41-9.9-.36,5.93,4.57V38.9l-3.21,1-59.12-8-9-1.22-27.32-1.89L6.63,23Z" transform="translate(0.38 0.49)"/><path class="cls-5" d="M19.31,45.57c39.76,11.16,71,24.58,92.6,33.72,29.2,12.36,42.84,18.26,66.79,25.3,20.67,6.07,43.33,12.44,71.84,15.3,21.47,2.15,23.61,2.26,58.79,1.28l12.81-2.12,7.43-.84,7.37-1.81,2.17-.44,2.22-1.37,7.65-2.74,8.14-1.85,7.68-.94,8.23-.43,12.88.2,12.07-.7,11.47-1.48,12.47-3.47L433.85,98l6.93-4L449,88l5.31-3.59,6.87-3.5,5.68-1.9,7.9-1.49,10.08-.22,6.57.28,14.83.53,17.78-.7,12.54-1.52,6.59-1.11-6.74-1.85-7-3.45-4.27-2L476.75,43.63l-5.88-2.87-4.54-1.15-4.07-4L459,30,457.09,33l-1.88,1.86a6.48,6.48,0,0,1-2.91,1.41,7.37,7.37,0,0,1-3.23-.28c-2.83-.61-4.6-1.11-4.6-1.11-1.18-.33-2.14-.62-2.78-.82l-9.21-2.3-9.19-1.52L417.35,30l-6.37.5-5.47,1.07-5.91,1.28-5.54.1-6.77-1.63-.5.27L379.9,32l-20.18.79-20,2.72-7.33,1.09-7.35.07-13.58,1.45-4,.33-2.92.64c-.13,0-.67.16-.78.59s.1.66.6,1.25A8.54,8.54,0,0,0,307,43c1.18.63,1.9.95,2.44,1.21A12.59,12.59,0,0,1,313,46.5a10.55,10.55,0,0,1,2.33,4.39c.17.57.28,1.06.36,1.42l-24.34-7,.47-2.09,3-.47,2-.44a.44.44,0,0,0,.11-.44.28.28,0,0,0-.45-.12l-1.75-.33-2.29-.23-6.53-.27-15,.24-9.18.87-15.17,2.09-13.73,3.17-1,.4-9.91-.35,5.93,4.56v1.55l-3.2,1-59.12-8-9-1.21-27.33-1.89-109.8-5.7Z" transform="translate(0.38 0.49)"/><path class="cls-6" d="M33.31,61.5c39.76,11.16,71,24.58,92.6,33.72,29.2,12.36,42.84,18.26,66.79,25.3,20.67,6.07,43.33,12.44,71.84,15.29,21.47,2.15,23.61,2.27,58.79,1.29L336.15,135l7.42-.84,7.37-1.81,2.18-.44,2.21-1.37,7.65-2.74,8.14-1.85,7.68-.94,8.23-.44,12.88.21,12.07-.7,11.47-1.48,12.47-3.47,11.93-5.22,6.93-4,8.19-6,5.31-3.59,6.87-3.51,5.69-1.9,7.89-1.48,10.08-.22,6.57.28,14.83.52L538,93.32l12.54-1.52,6.59-1.11-6.74-1.85-7-3.45-4.27-2L490.75,59.56l-5.88-2.88-4.54-1.14-4.07-4L473,45.9,471.09,49l-1.88,1.86a6.59,6.59,0,0,1-2.91,1.41,7.47,7.47,0,0,1-3.22-.28c-2.84-.61-4.61-1.11-4.61-1.11-1.18-.33-2.14-.62-2.78-.82l-9.21-2.3-9.19-1.53L431.35,46l-6.37.5-5.47,1.06L413.6,48.8l-5.54.1-6.77-1.63-.5.27L393.9,48l-20.18.78-20,2.73-7.33,1.09-7.35.07-13.58,1.45-4,.33-2.92.64c-.13,0-.67.16-.78.59s.1.66.6,1.25A8.54,8.54,0,0,0,321,59c1.19.63,1.9.95,2.44,1.21A12.59,12.59,0,0,1,327,62.43a10.5,10.5,0,0,1,2.33,4.39c.17.57.29,1.06.36,1.42l-24.34-7,.47-2.09,3-.47,2-.44a.46.46,0,0,0,.1-.44.28.28,0,0,0-.45-.12l-1.75-.33-2.29-.23-6.53-.28-15,.25-9.19.87-15.16,2.09-13.74,3.16-1,.41-9.91-.35,5.93,4.56V69.4l-3.2.95-59.12-8-9-1.21-27.33-1.89-109.8-5.7Z" transform="translate(0.38 0.49)"/></g></g></g></svg>