<svg xmlns="http://www.w3.org/2000/svg" viewBox="0 0 882.15 457.68"><defs><style>.cls-1{fill:#743027;}.cls-1,.cls-2{stroke:#000;stroke-miterlimit:10;stroke-width:0.5px;}.cls-2{fill:none;}.cls-3{fill:#742d1d;}</style></defs><title>Layer 18 (2)</title><g id="Layer_2" data-name="Layer 2"><g id="Layer_18" data-name="Layer 18"><path class="cls-1" d="M634.83,417.91c6.48,2.3,9.73,3.45,11.15,4.12"/><path class="cls-2" d="M.15,84.59C11,76.11,28.3,63,45.63,52.9c15-8.77,26.86-14.29,30.73-16.06,17.29-7.9,41.38-7.49,73.83-13"/><path class="cls-2" d="M215,15.36a86,86,0,0,1,18.06-7.82c10.88-3,16.19-.63,33.39,0,7.18.26,3.05-.26,28.92-.64,12-.18,15.63-.11,26.56-.33,8.23-.16,14.3-3.67,22.35-.64,4,1.52,8.84,5.34,10.73,7"/><path class="cls-2" d="M228.45,212.39c.53,1.15,3,6.39,4.32,7.78a11.45,11.45,0,0,0,7.37,3.57l64.79,30.89c2.67.83,7.58,3,12.55,1.35,1.38-.46,6.18-1.06,7.25-1.68"/><path class="cls-2" d="M366.18,2.09C366.72-1,382.54.5,393.9,1.57,408.83,3,409.27,4.63,417.78,4.18c13.35-.7,14.73-4.9,22.6-2.61,7.66,2.23,7.88,6.65,19.18,12C468.87,18,475,18,474.91,19.33c-.07,1.73-9.94,5.29-20,2.09-8.48-2.7-12.1-8.57-20.89-7.84-3.05.26-2.53.95-6.4,1.57-9.29,1.47-13.38-2.38-22.6-3.66-9.57-1.32-9.22,2.27-18.33,1C375.77,11.07,365.73,4.66,366.18,2.09Z"/><path class="cls-3" d="M881.78,457.43l-44.89-6.35-11.62-1.7-6.36-1.21-13.51-2.82-27.56-5.87-12.75-2.88-32.53-8.36-38.4-10.74-12.44-6.63-4.78-2.6-2.17-5.59-3.18-5.39L666,389.38l-9.41-11.44-7.51-7.27-8.49-6.62C643,332,651.76,297.76,657.17,282c6.78-19.77,10.82-31.07,20.25-35.72,11.81-5.81,19.08,5.21,42.41,5.44,16.61.16,15.39-5.4,31-5.44a65.84,65.84,0,0,1,53.8,28c2.4,3.49,9.42,13.68,7,21.74-1.41,4.62-5,5.62-5.06,9.32,0,5.32,7.46,6.59,13.29,13.19,9,10.2,2.92,20.54,11.39,41.15,5.57,13.56,8.92,10.83,14.56,25.62,5.17,13.58,3.75,19.53,8.86,28.73,5.66,10.18,12.15,7.63,19,17.08,5.66,7.83,7.41,19.42,8.1,26.38"/><path class="cls-2" d="M723,251.71c5.84-.31,18.7,1.36,28.58,2.25,10.25.94,15.38,1.4,21,3.65,10.22,4.09,16,10.47,26.76,22.34,5.06,5.58,7.11,8.73,7.25,12.77.24,6.82-5.23,9-4.46,14.59s6.44,5.49,13,16.41a33,33,0,0,1,3.16,6.61c2,6,.39,7.58,1.85,12.77,2,7.09,6,7.72,6.14,13.45.07,3.17-1.13,4-1.49,6.84-.71,5.71,3.14,10,9.29,18.46,17,23.48,17.21,31.84,17.1,34a10,10,0,0,0,.37,3.64c1.43,4.65,6.26,6.09,8.18,7.07,3.76,1.92,8.07,10.16,10,28.85"/><path class="cls-2" d="M722.91,251.71c5.84-.31,18.72,1.36,28.62,2.25,10.26.94,15.4,1.4,21,3.65,10.23,4.09,16,10.47,26.79,22.34,5.07,5.58,7.12,8.73,7.26,12.77.24,6.82-5.24,9-4.47,14.59s6.45,5.49,13,16.41a32.66,32.66,0,0,1,3.17,6.61c2,6,.39,7.58,1.86,12.77,2,7.09,6,7.72,6.14,13.45.07,3.17-1.13,4-1.49,6.84-.71,5.71,3.15,10,9.3,18.46,17,23.48,17.23,31.84,17.13,34a9.78,9.78,0,0,0,.37,3.64c1.43,4.65,6.26,6.09,8.19,7.07,3.76,1.92,8.07,10.16,10,28.85"/><path class="cls-2" d="M882,457.43l-45-6.35-11.64-1.7L819,448.17l-13.53-2.82-27.6-5.87L765.1,436.6l-32.58-8.36L694.06,417.5l-12.45-6.63-4.79-2.6-2.17-5.59-3.19-5.39-5.62-7.91-9.41-11.44-7.52-7.27-8.51-6.62C642.87,332,651.6,297.76,657,282c6.79-19.77,10.83-31.07,20.28-35.72,11.82-5.81,19.1,5.21,42.46,5.44,16.63.16,15.41-5.4,31.06-5.44a66,66,0,0,1,53.87,28c2.41,3.49,9.43,13.68,7,21.74-1.41,4.62-5,5.62-5.07,9.32,0,5.32,7.47,6.59,13.31,13.19,9,10.2,2.93,20.54,11.41,41.15,5.58,13.56,8.93,10.83,14.58,25.62,5.18,13.58,3.75,19.53,8.87,28.73,5.67,10.18,12.17,7.63,19,17.08,5.67,7.83,7.43,19.42,8.12,26.38"/></g></g></svg>