<svg xmlns="http://www.w3.org/2000/svg" xmlns:xlink="http://www.w3.org/1999/xlink" viewBox="0 0 769.34 87.4"><defs><style>.cls-1,.cls-5{fill:none;}.cls-2{fill:#e3cdc0;}.cls-3{fill:#bdb3be;}.cls-4{fill:#44638f;}.cls-5{stroke:#000;stroke-miterlimit:10;stroke-width:0.5px;}.cls-6{clip-path:url(#clip-path);}.cls-7{fill:#687f99;}.cls-8{fill:#979ea5;}</style><clipPath id="clip-path"><path class="cls-1" d="M454.55.91a14.75,14.75,0,0,1,6.19,1.31c6,2.7,6.84,7.82,11.05,8.21,2.28.22,1.9-1.3,8.35-3.94,4.45-1.82,7-2.82,10-1.93s2.91,2.75,5.66,3.08c3.35.42,4.25-2.24,8.31-2.13,2.81.07,2.54,1.35,5.38,1.39,3.85,0,4.73-2.28,8.18-1.72,2.07.33,2.12,1.23,4.38,1.43,2.88.25,3.44-1.16,5.23-.78,3.07.67,3.21,5.2,6.23,7.21,3.37,2.23,7.77-.37,9.22-1.14,19.14-10.13,113-12.12,127.89-7a43.12,43.12,0,0,0,10.5,2.3,46.12,46.12,0,0,0,8.09,0c7.81-.7,8.48-2.8,11.58-1.64,4.62,1.71,4.56,6.88,8.62,7.55,3.65.6,4.65-3.38,8.63-3.61,5.32-.31,6,6.67,12.93,9.86,7.43,3.41,11.73-2.29,18.09,1.62,3.94,2.43,6.07,7,7.21,10.14L733.94,43.62l-4.85,1.65H710.45l-20.87,1.52-122,18.53a27.62,27.62,0,0,0-10.78-7c-5.33-1.78-9.64-1-13-.58-8.22,1.14-16.55.56-24.82,1-10.69.63-20.14,1.19-32.35,1-10.27-.12-15.4-.18-19.86-.65-6.9-.72-9.52-1.54-14.91-.87a56.41,56.41,0,0,0-13.74,3.88,88.74,88.74,0,0,0-11.21,5.25,112.12,112.12,0,0,1,6.73-17.7c5.66-11.72,9.9-14.93,13.58-23.93,2.16-5.29,4.51-13.53,4.34-25.49Z"/></clipPath></defs><title>Layer 29 (2)</title><g id="Layer_2" data-name="Layer 2"><g id="Layer_29" data-name="Layer 29"><path class="cls-2" d="M365.2,63.05c-3.19,4.47-11.8,4-13.75,3.88-14-.77-46.52-2.55-66,.74-18.8,3.18-37.31,13.12-42.17,4.45-1.2-2.15-2.25-6.66-4.23-6.67s-3.32,4.55-4.23,6.67l-57,3.37-8.26-5.6c-3,.18-4.05,3.67-7.25,5.93-5.09,3.6-10.42.34-17.52-1.48-2.83-.73-10.75-.24-26.58.74-14.32.88-21.48,1.32-26,2.22-12.9,2.58-17.16,5.83-27.18,4.45-6.5-.9-6.61-2.53-11.48-2.22C44.86,80.08,41,85.62,33.08,84c-3.58-.74-3-1.93-6.65-3C14.15,77.5,6.57,88.84.84,86.94c-1.17-.4-.29-10.43,0-22.24.3-12,17.79-10.21,27.41-10.37,9.85-.16,10.21,2.22,17.52,2.22,24.36,0,33.9-26.51,58.59-25.93,3.14.07,4.56.53,7.86,0C126,28.38,129,15.82,138.8,15.06c8.46-.67,8.73,8.57,18.12,9.28,13.35,1,17.57-17.31,30.21-15.21,1,.16,6.27,2.82,16.91,8.15,7,3.48,8.84,4.57,11.48,3.7,5.91-1.95,6-10.58,11.48-11.85,3.94-.91,5.07,3.21,10.87,4.44,7,1.5,8.87-3.79,16.31-4.44,8.85-.78,9.08,6.42,23,9.63,5.55,1.28,10.65,1.32,18.12,1.37,4.39,0,7.2-.16,12.08-.44,19.68-1.13,19.41-.65,28.39-1.37,6.11-.49,14.83-1.4,25.46-3.25l.18,9.76,2.05,4.77L367.07,34l1.74,6.36-.58,7.76Z"/><path class="cls-3" d="M229.9,14.86c-1.65,2.81-4.6,6.88-9.17,8.66-2.32.9-5.6,1.42-16.42-2.46-13.33-4.79-12.78-7.17-17.63-6.88-6.49.38-12.58,4.93-17.83,8.84-4.55,3.4-5.27,4.9-8,5.65-4.38,1.21-6.38-3.22-16-7.12-3.43-1.39-5.14-2.08-6.81-2-5.87.41-7.87,6.43-13.62,10.81-4.18,3.2-5.19,1.58-19,4.43-11.23,2.3-16.89,3.47-23.63,7.12C72.37,47,73.85,49.87,65.09,54.23,55.46,59,46.56,59.09,40.45,59.14c-7.41.06-7.47-1.58-16-1.72C14,57.26,8.26,57.17,4.6,61.84c-3.89,5-.25,12.41-2,22.36-.09.46-.35,1.93.11,2.29.82.63,2.82-2.91,5.76-5.19,4.2-3.24,8.9-2.82,11.51-2.59,5,.45,5.5,2.47,12,3.31a26.72,26.72,0,0,0,6.93.15c6.2-.74,7.39-3.41,12.1-4.32,5.63-1.1,6.81,2.14,14.21,2.88,3.48.34,4.7-.23,14.33-2.31C88,76.59,95.51,75,103,74.1c7.26-.84,5,.11,17.39-.72,18.42-1.24,21.56-3.25,27.48,0,2.49,1.37,4.73,3.25,8.11,2.88,3.08-.34,6.16-2.45,9.51-4.75s3.57-3,4.94-3c3.06,0,4.06,3.62,7.75,5.33,3,1.41,5.69.49,8.22-.14,4.22-1.06,10.67-2,20.2-1.15l28.83-2.77.5-1.15c.44-1,.65-1.5.73-1.66a6.58,6.58,0,0,1,1.41-2.27,2.19,2.19,0,0,1,1.4-.73,2.3,2.3,0,0,1,1.67.9,6.93,6.93,0,0,1,1.08,2.27,21.82,21.82,0,0,0,1.06,2.26,7,7,0,0,0,3,2.71,8.31,8.31,0,0,0,5,.67c5.08-.61,7.62-.91,9.66-1.61,9-3.09,18.65-4.61,24.17-5.48a130.56,130.56,0,0,1,13.48-1.15c7.92-.45,21.16-1.19,34.19.1,4.69.46,9.4.25,14.09.63A31.5,31.5,0,0,0,353.2,65a12.56,12.56,0,0,0,3.4-.9,6.22,6.22,0,0,0,3.13-2.21c.64-1,.56-1.77.82-3.76.23-1.74.27-1,1.29-5.9A54,54,0,0,0,363,45.58a14.74,14.74,0,0,0-.2-5.33A12.65,12.65,0,0,0,361,36.36c-1.06-1.59-1.59-1.64-2.55-2.86a14.3,14.3,0,0,1-2.56-7,20.17,20.17,0,0,1,0-6.46c-2.88.49-7.29,1.17-12.71,1.75-5.73.61-11.48.88-22.76,1.39-9.91.46-9.32.33-14.9.66-5.41.31-7.6.53-12.17.61a94,94,0,0,1-11.84-.35c-4.46-.47-6.94-.74-10.22-2.05a53.08,53.08,0,0,1-7.5-3.95c-3.52-2.14-4.32-3-6.5-3.43a13.28,13.28,0,0,0-6.14.65c-2.91.84-3.18,1.65-6,2.55a16.7,16.7,0,0,1-6.86.87,15.52,15.52,0,0,1-8.43-3.89"/><path class="cls-4" d="M117.25,70.94a13.16,13.16,0,0,0,3.38-7.1c.36-2.94-.58-4.46-.15-7.29a12.08,12.08,0,0,1,3.66-6.74A50.87,50.87,0,0,1,130.45,47c5.13-1.85,7-1.57,9.6-3.05,2.08-1.21,4.89-3.75,7.25-9.8l-11,.81.15-3.6a3.87,3.87,0,0,1,1.46-1.53c.32-.17,1.4-.67,4,.54a17.83,17.83,0,0,1,4.18,3c1,.88,2.38,2.13,4,3.77l9.08-.89c3.73.45,5.93-.68,7.26-1.8,1.79-1.52,1.37-2.51,3.81-4.95,2.81-2.8,3.63-1.74,6.08-4.49a5.74,5.74,0,0,1,2.94-2.07c.6-.14,1.68-.24,1.83.18s-1.16,2.2-8.21,7.1l17.37,1A22.15,22.15,0,0,1,197,24.55,18.94,18.94,0,0,1,208.36,22c2.94.12,5.72,1.13,11.28,3.15,7.22,2.62,7.59,3.83,7.55,4.31a1.3,1.3,0,0,1-.66.9c-3.45,2.31-5.89,6.45-9.23,9-4.85,3.7-7.94,8.58-11.22,13.76a75.41,75.41,0,0,0-7,14.2L191.87,48.1c-1.38-4.57-3.38-6.45-4.55-7.28-.6-.43-1.32-.82-6-2.25-2.05-.62-3.75-1.11-4.91-1.44l-1,7.75c.32.62.8,1.56,1.4,2.68,1.35,2.54,1.9,3.37,2.78,5.22,1.57,3.28,1.58,4.26,1.47,4.94A4.86,4.86,0,0,1,180,60a5.14,5.14,0,0,1-3.08,1.71,19.63,19.63,0,0,0-5.27,2.43c.17-2,.38-4.55.58-7.56.24-3.42.3-4.76-.24-6.42a7.91,7.91,0,0,0-2.23-3.57c-.57-.49-2.06-1.78-3.51-1.26-.72.26-.93.78-2.91,3.78-1.64,2.47-2.14,3.08-2.57,2.94-.68-.23-.44-2.17-1.28-2.63-.64-.34-1.54.35-2.32,1.16l-2,10.61-1.63-.11-2-5.57-7.88,7.25,9.51,2.73-8.39,4.41.77,2.31"/><path class="cls-4" d="M361.87,27.35c-1.16,0-3.35,6-6.53,16.55-.91,3-1.55,5.3-3.35,6.33a5,5,0,0,1-6.11-.9l-4,.9,7,10.14-3.51-1.12-3.81-6-12.67-5.1L310.1,39l2.21-10.67a3.25,3.25,0,0,0,.61-1.87l-6-4.1,1.13-2,19.68.56,1.87,7.55a28.53,28.53,0,0,1,10-8,31.47,31.47,0,0,1,6.68-2,72.16,72.16,0,0,1,13.82-1.66"/><path class="cls-4" d="M274.31,21.63,274,25l14.19,3,1.37-3.65Z"/><path class="cls-4" d="M234.79,21.06c-1.25,2-.77,5.85.76,7.12,1.08.89,2-.08,3.82.18,2.71.4,3.1,2.84,7,6.37,1.55,1.4,3.63,2.55,7.78,4.87,3.38,1.88,4.48,2.21,5.65,1.68a5.35,5.35,0,0,0,2.74-4.68c0-3.09-3.17-5.09-4.58-6-3.16-2-4.51-.9-7.17-3-2.08-1.64-1.82-2.77-3.66-4.68C243.38,19,236.75,18,234.79,21.06Z"/><polygon class="cls-4" points="297.36 27.52 291.4 32.77 299.64 38.24 297.51 45.73 308.8 48.16 305.6 34.31 300.1 25.13 297.36 27.52"/><path class="cls-5" d="M365.2,63.05c-3.19,4.47-11.8,4-13.75,3.88-14-.77-46.52-2.55-66,.74-18.8,3.18-37.31,13.12-42.17,4.45-1.2-2.15-2.25-6.66-4.23-6.67s-3.32,4.55-4.23,6.67l-57,3.37-8.26-5.6c-3,.18-4.05,3.67-7.25,5.93-5.09,3.6-10.42.34-17.52-1.48-2.83-.73-10.75-.24-26.58.74-14.32.88-21.48,1.32-26,2.22-12.9,2.58-17.16,5.83-27.18,4.45-6.5-.9-6.61-2.53-11.48-2.22C44.86,80.08,41,85.62,33.08,84c-3.58-.74-3-1.93-6.65-3C14.15,77.5,6.57,88.84.84,86.94c-1.17-.4-.29-10.43,0-22.24.3-12,17.79-10.21,27.41-10.37,9.85-.16,10.21,2.22,17.52,2.22,24.36,0,33.9-26.51,58.59-25.93,3.14.07,4.56.53,7.86,0C126,28.38,129,15.82,138.8,15.06c8.46-.67,8.73,8.57,18.12,9.28,13.35,1,17.57-17.31,30.21-15.21,1,.16,6.27,2.82,16.91,8.15,7,3.48,8.84,4.57,11.48,3.7,5.91-1.95,6-10.58,11.48-11.85,3.94-.91,5.07,3.21,10.87,4.44,7,1.5,8.87-3.79,16.31-4.44,8.85-.78,9.08,6.42,23,9.63,5.55,1.28,10.65,1.32,18.12,1.37,4.39,0,7.2-.16,12.08-.44,19.68-1.13,19.41-.65,28.39-1.37,6.11-.49,14.83-1.4,25.46-3.25l.18,9.76,2.05,4.77L367.07,34l1.74,6.36-.58,7.76Z"/><g class="cls-6"><path class="cls-2" d="M454.55,1.06a14.91,14.91,0,0,1,6.19,1.31c6,2.7,6.84,7.83,11.05,8.22,2.28.21,1.9-1.3,8.35-3.94,4.45-1.82,7-2.83,10-1.94s2.91,2.75,5.66,3.09c3.35.41,4.25-2.25,8.31-2.14,2.81.08,2.54,1.35,5.38,1.39,3.85,0,4.73-2.27,8.18-1.72,2.07.34,2.12,1.23,4.38,1.43,2.88.25,3.44-1.16,5.23-.77,3.07.66,3.21,5.19,6.23,7.2,3.37,2.24,7.77-.36,9.22-1.13C561.88,1.92,655.78-.07,670.63,5a42.62,42.62,0,0,0,10.5,2.3,46.12,46.12,0,0,0,8.09,0c7.81-.7,8.48-2.79,11.58-1.64,4.62,1.72,4.56,6.89,8.62,7.56,3.65.6,4.65-3.39,8.63-3.62,5.32-.3,6,6.68,12.93,9.86,7.43,3.42,11.73-2.29,18.09,1.63,3.94,2.43,6.07,7,7.21,10.14L733.94,43.77l-4.85,1.65H710.45L689.58,47l-122,18.52a27.61,27.61,0,0,0-10.78-7c-5.33-1.78-9.64-1-13-.59-8.22,1.14-16.55.56-24.82,1-10.69.63-20.14,1.18-32.35,1-10.27-.11-15.4-.17-19.86-.64-6.9-.73-9.52-1.55-14.91-.87a56.41,56.41,0,0,0-13.74,3.88,87.36,87.36,0,0,0-11.21,5.25,111.39,111.39,0,0,1,6.73-17.7C439.29,38.16,443.53,35,447.21,26c2.16-5.29,4.51-13.52,4.34-25.49Z"/><path class="cls-3" d="M450.77,15.48a18.87,18.87,0,0,1,6.27,1c6,2.12,6.93,6.13,11.19,6.44,2.31.17,1.92-1,8.46-3.09,4.5-1.43,7.09-2.21,10.12-1.51s3,2.15,5.74,2.41c3.4.33,4.31-1.76,8.41-1.67,2.85.06,2.57,1.06,5.45,1.09,3.9,0,4.79-1.78,8.29-1.35,2.09.26,2.14,1,4.43,1.12,2.92.2,3.48-.91,5.3-.6,3.1.52,3.24,4.07,6.3,5.64,3.42,1.75,7.87-.29,9.34-.89,19.37-7.94,114.45-9.5,129.48-5.53a54.25,54.25,0,0,0,10.64,1.81,63,63,0,0,0,8.19,0c7.91-.55,8.59-2.19,11.73-1.29,4.68,1.34,4.61,5.39,8.73,5.92,3.68.47,4.7-2.65,8.73-2.83,5.38-.24,6.08,5.23,13.09,7.72,7.52,2.67,11.88-1.79,18.32,1.27a15.9,15.9,0,0,1,7.3,8l-22.62,9.82-4.91,1.29H709.88l-21.14,1.2L565.18,65.93a29.91,29.91,0,0,0-10.92-5.49c-5.39-1.39-9.75-.81-13.13-.45-8.33.89-16.76.43-25.13.81-10.82.5-20.39.93-32.75.82-10.4-.09-15.6-.13-20.11-.5-7-.57-9.64-1.21-15.1-.68a70.18,70.18,0,0,0-13.91,3,102.79,102.79,0,0,0-11.35,4.12,75.47,75.47,0,0,1,6.81-13.87c5.73-9.18,10-11.69,13.75-18.75a40.12,40.12,0,0,0,4.4-20Z"/><path class="cls-4" d="M434.16,52.09a49.22,49.22,0,0,1,6.66.44c6.42.89,7.35,2.6,11.87,2.73,2.45.07,2-.44,9-1.31,4.78-.61,7.53-.94,10.75-.65s3.14.92,6.08,1c3.61.14,4.58-.75,8.94-.71,3,0,2.72.45,5.78.46,4.13,0,5.07-.75,8.79-.57,2.22.11,2.27.41,4.7.48,3.1.08,3.7-.39,5.62-.26,3.3.22,3.45,1.72,6.69,2.39,3.63.75,8.35-.12,9.91-.38,20.56-3.36,121.45-4,137.4-2.34.93.1,5.3.6,11.29.77,4.15.11,7.63,0,8.68,0,8.4-.24,9.11-.93,12.45-.55,5,.57,4.89,2.29,9.26,2.51,3.91.2,5-1.12,9.26-1.2,5.72-.1,6.46,2.22,13.9,3.27,8,1.14,12.6-.75,19.43.55a15.88,15.88,0,0,1,7.75,3.37l-24,4.16-5.21.55h-20l-22.42.51L555.56,73.49A58.34,58.34,0,0,0,544,71.17a88.89,88.89,0,0,0-13.93-.2c-8.84.38-17.78.19-26.67.35-11.48.21-21.63.39-34.76.34-11,0-16.54,0-21.34-.21-7.41-.24-10.22-.51-16-.29s-10.68.8-14.77,1.29c-5,.6-9.12,1.24-12,1.74a36.81,36.81,0,0,1,7.23-5.88c6.08-3.89,10.64-5,14.59-8,2.32-1.76,4.85-4.49,4.67-8.47Z"/><path class="cls-7" d="M445.16,36.77c1.58,0,4,0,6.66.18,6.42.37,7.35,1.07,11.87,1.13,2.45,0,2-.18,9-.55,4.78-.25,7.53-.38,10.75-.26s3.14.38,6.08.42c3.61.06,4.58-.31,8.93-.29,3,0,2.73.18,5.79.19,4.13,0,5.07-.31,8.78-.24,2.23,0,2.28.17,4.71.2,3.09,0,3.7-.16,5.62-.11,3.3.09,3.45.72,6.69,1a72.48,72.48,0,0,0,9.91-.15c20.56-1.4,121.45-1.67,137.4-1,.93,0,5.3.25,11.29.31,4.15.05,7.63,0,8.68,0,8.4-.09,9.11-.38,12.45-.22,5,.23,4.89.94,9.26,1,3.91.08,5-.47,9.26-.5,5.72,0,6.46.92,13.9,1.35,8,.47,12.6-.31,19.43.23a29.81,29.81,0,0,1,7.75,1.39l-24,1.73-5.21.22h-20l-22.42.21L566.56,45.62c-2.45-.32-6.33-.74-11.58-1-5.73-.25-10.35-.15-13.93-.08-8.84.15-17.79.07-26.67.14-11.48.09-21.63.16-34.76.14-11,0-16.54,0-21.34-.09-7.41-.1-10.22-.21-16-.12s-10.68.34-14.77.54c-5,.25-9.12.51-12,.72a47.5,47.5,0,0,1,7.23-2.43c6.08-1.62,10.64-2.06,14.59-3.29,2.32-.73,4.85-1.86,4.67-3.51Z"/><path class="cls-8" d="M573,25.93a26.49,26.49,0,0,1,3,.16c2.91.32,3.33.93,5.38,1,1.12,0,.93-.16,4.08-.47a27.55,27.55,0,0,1,4.87-.24c1.51.11,1.43.33,2.76.37,1.64.05,2.08-.27,4.06-.25,1.37,0,1.23.16,2.62.16,1.88,0,2.3-.27,4-.2,1,0,1,.15,2.13.17,1.41,0,1.68-.14,2.55-.09,1.5.08,1.57.62,3,.86a17.47,17.47,0,0,0,4.5-.14c9.33-1.21,55.11-1.45,62.35-.84.42,0,2.4.21,5.12.27,1.89,0,3.46,0,3.94,0,3.81-.08,4.14-.33,5.65-.19,2.25.2,2.22.82,4.2.9,1.78.07,2.26-.4,4.2-.43,2.6,0,2.94.8,6.31,1.17,3.62.41,5.72-.27,8.82.2a8.31,8.31,0,0,1,3.52,1.21L709.21,31l-2.36.19h-9.09l-10.18.19-59.49,2.21a33.09,33.09,0,0,0-5.26-.84,52.77,52.77,0,0,0-6.32-.07c-4,.14-8.07.07-12.1.13-5.21.07-9.82.14-15.77.12-5,0-7.51,0-9.69-.08-3.36-.08-4.64-.18-7.26-.1s-4.85.29-6.71.46c-2.28.22-4.14.45-5.46.63a15.85,15.85,0,0,1,3.28-2.11c2.76-1.4,4.83-1.79,6.62-2.86,1.05-.63,2.2-1.61,2.12-3Z"/><path class="cls-8" d="M433.15,56.44a26.39,26.39,0,0,1,3,.16c2.91.32,3.33.93,5.39,1,1.11,0,.92-.16,4.07-.47a27.65,27.65,0,0,1,4.88-.24c1.5.11,1.42.33,2.76.37,1.63,0,2.07-.27,4.05-.25,1.37,0,1.24.16,2.62.16,1.88,0,2.31-.27,4-.2,1,0,1,.15,2.13.17,1.41,0,1.68-.14,2.56-.09,1.49.08,1.56.62,3,.86a17.47,17.47,0,0,0,4.5-.14c9.33-1.21,55.11-1.45,62.35-.84.42,0,2.4.21,5.12.27,1.89,0,3.47,0,3.94,0,3.81-.08,4.14-.33,5.65-.19,2.25.2,2.22.82,4.2.9,1.78.07,2.27-.4,4.21-.43,2.59,0,2.93.8,6.3,1.17,3.62.41,5.72-.27,8.82.2A8.25,8.25,0,0,1,580.26,60l-10.89,1.5-2.37.19h-9.09l-10.17.19-59.5,2.21a32.89,32.89,0,0,0-5.26-.84,52.77,52.77,0,0,0-6.32-.07c-4,.14-8.07.07-12.1.13-5.21.07-9.82.14-15.77.12-5,0-7.51,0-9.69-.08-3.36-.08-4.64-.18-7.26-.1s-4.85.29-6.7.46c-2.29.22-4.14.45-5.47.63A15.85,15.85,0,0,1,423,62.27c2.76-1.4,4.83-1.79,6.62-2.86,1.06-.63,2.2-1.61,2.12-3Z"/></g><path class="cls-5" d="M365.71,63.05c-3.19,4.47-11.82,4-13.77,3.88-14-.77-46.58-2.55-66.07.74-18.82,3.18-37.36,13.12-42.22,4.45-1.2-2.15-2.26-6.66-4.24-6.67s-3.33,4.55-4.23,6.67l-57.06,3.37-8.28-5.6c-3,.18-4.05,3.67-7.25,5.93-5.1,3.6-10.43.34-17.55-1.48-2.84-.73-10.76-.24-26.62.74-14.34.88-21.51,1.32-26,2.22-12.92,2.58-17.19,5.83-27.22,4.45-6.51-.9-6.62-2.53-11.5-2.22C44.92,80.08,41,85.62,33.13,84c-3.59-.74-3.06-1.93-6.66-3C14.17,77.5,6.58,88.84.84,86.94c-1.17-.4-.29-10.43,0-22.24.3-12,17.81-10.21,27.45-10.37,9.86-.16,10.23,2.22,17.54,2.22,24.4,0,34-26.51,58.68-25.93,3.13.07,4.56.53,7.86,0,13.79-2.24,16.85-14.8,26.62-15.56,8.48-.67,8.75,8.57,18.15,9.28,13.36,1,17.59-17.31,30.25-15.21,1,.16,6.28,2.82,16.94,8.15,6.95,3.48,8.84,4.57,11.49,3.7,5.92-1.95,6-10.58,11.5-11.85,3.94-.91,5.07,3.21,10.88,4.44,7,1.5,8.88-3.79,16.34-4.44,8.85-.78,9.08,6.42,23,9.63,5.55,1.28,10.66,1.32,18.14,1.37,4.4,0,7.21-.16,12.09-.44,19.71-1.13,19.44-.65,28.44-1.37,6.11-.49,14.85-1.4,25.5-3.25l.17,9.76,2.05,4.77L367.58,34l1.75,6.36-.58,7.76Z"/><path class="cls-5" d="M454.19.91a14.86,14.86,0,0,1,6.21,1.31c6,2.7,6.84,7.82,11.06,8.21,2.28.22,1.9-1.3,8.36-3.94,4.46-1.82,7-2.82,10-1.93s2.92,2.75,5.67,3.08c3.36.42,4.26-2.24,8.32-2.13,2.81.07,2.55,1.35,5.39,1.39,3.85,0,4.74-2.28,8.19-1.72,2.08.33,2.13,1.23,4.39,1.43,2.88.25,3.45-1.16,5.24-.78,3.07.67,3.21,5.2,6.24,7.21,3.37,2.23,7.78-.37,9.23-1.14,19.16-10.13,113.2-12.12,128.06-7a43.4,43.4,0,0,0,10.53,2.3,46.12,46.12,0,0,0,8.09,0c7.82-.7,8.49-2.8,11.6-1.64,4.63,1.71,4.56,6.88,8.63,7.55,3.65.6,4.65-3.38,8.64-3.61,5.33-.31,6,6.67,13,9.86,7.44,3.41,11.75-2.29,18.12,1.62,4,2.43,6.07,7,7.22,10.14L734,43.62l-4.86,1.65H710.45l-20.9,1.52L567.34,65.32a27.74,27.74,0,0,0-10.79-7c-5.34-1.78-9.65-1-13-.58-8.24,1.14-16.57.56-24.85,1-10.71.63-20.17,1.19-32.4,1-10.28-.12-15.42-.18-19.89-.65-6.91-.72-9.53-1.54-14.92-.87a56.42,56.42,0,0,0-13.77,3.88,88.3,88.3,0,0,0-11.22,5.25,111.12,111.12,0,0,1,6.73-17.7c5.68-11.72,9.92-14.93,13.6-23.93,2.17-5.29,4.52-13.53,4.35-25.49Z"/></g></g></svg>