<svg xmlns="http://www.w3.org/2000/svg" viewBox="0 0 368.99 42.45"><defs><style>.cls-1{fill:#723838;}.cls-2{fill:none;stroke:#000;stroke-miterlimit:10;stroke-width:0.5px;}</style></defs><title>Layer 22 (2)</title><g id="Layer_2" data-name="Layer 2"><g id="Layer_22" data-name="Layer 22"><path class="cls-1" d="M.26,25.75l87.92,4.07,49.54,3.35,68.07,9,3.2-.87v-1.6l-5.7-4.37,9.74.29A185.23,185.23,0,0,1,235.72,31c21.75-3.06,42.5-1.95,42.53-.88,0,.23-.9.59-5.11,1.17l-.47,2L297,40c-.84-3.63-2.21-5.24-3.21-6a17.56,17.56,0,0,0-3-1.67,23.29,23.29,0,0,1-3.8-2c-1.1-.81-2.09-1.54-2-2.18.15-1.27,4.32-1.52,5.7-1.6,6.19-.39,12.34-1.8,18.53-1.61,8.87.28,9.83-1.36,25.66-3.2,14.79-1.71,33.77-.93,33.83-2,0-.35-1.72-2.74-25.49-6.08-23.59-3.32-25.76-2.71-29.48-2-6.36,1.28-9.72,2.14-15.26,1.12-8.19-1.52-11.14-6-13.22-8.22-8.25-8.71-30.73-1.58-53.74-.09-18.55,1.2-9-1-77.37,3-13.25.78-26.5,1.42-39.84,2.06-11.29.54-20.16.41-33,2-3.3.42-9.84-3.6-21-2.52C20.21,12.87.34-1.3.26,6.39c0,3.08.12,6.91,0,19.36"/><path class="cls-2" d="M.26,25.75l87.92,4.07,49.54,3.35,68.07,9,3.2-.87v-1.6l-5.7-4.37,9.74.29A185.23,185.23,0,0,1,235.72,31c21.75-3.06,42.5-1.95,42.53-.88,0,.23-.9.59-5.11,1.17l-.47,2L297,40c-.84-3.63-2.21-5.24-3.21-6a17.56,17.56,0,0,0-3-1.67,23.29,23.29,0,0,1-3.8-2c-1.1-.81-2.09-1.54-2-2.18.15-1.27,4.32-1.52,5.7-1.6,6.19-.39,12.34-1.8,18.53-1.61,8.87.28,9.83-1.36,25.66-3.2,14.79-1.71,33.77-.93,33.83-2,0-.35-1.72-2.74-25.49-6.08-23.59-3.32-25.76-2.71-29.48-2-6.36,1.28-9.72,2.14-15.26,1.12-8.19-1.52-11.14-6-13.22-8.22-8.25-8.71-30.73-1.58-53.74-.09-18.55,1.2-9-1-77.37,3-13.25.78-26.5,1.42-39.84,2.06-11.29.54-20.16.41-33,2-3.3.42-9.84-3.6-21-2.52C20.21,12.87.34-1.3.26,6.39c0,3.08.12,6.91,0,19.36"/></g></g></svg>