<svg xmlns="http://www.w3.org/2000/svg" viewBox="0 0 565.83 131.98"><defs><style>.cls-1{fill:#a36c5b;}.cls-2{fill:#5a525f;}.cls-2,.cls-3{stroke:#000;stroke-miterlimit:10;stroke-width:0.5px;}.cls-3{fill:none;}</style></defs><title>Layer 26 (2)</title><g id="Layer_2" data-name="Layer 2"><g id="Layer_26" data-name="Layer 26"><polygon class="cls-1" points="1.66 59.25 14.32 59.25 21.28 54.98 6.65 46.71 24.34 45.61 38.25 45.54 45.56 45.54 49.78 35.04 59.83 34.93 74.86 28.44 108.74 28.44 126.47 16.95 152.49 11.68 178.51 28.44 214.46 2.15 260.61 21.88 277.24 19.25 270.27 4.78 279.39 0.83 295.75 14.97 308.94 16.01 323.12 18.26 385.09 14.64 405.75 8.07 418.63 11.03 440.36 12.34 448.68 24.18 458.6 25.17 452.97 13 476.04 21.88 482.48 20.56 482.75 10.04 490.53 10.37 495.63 19.25 514.14 26.15 505.95 30.04 565.33 32.04 565.33 131.98 514.77 127.7 495.03 126.07 447.71 122.16 412.49 119.25 378.29 116.55 342.41 114.02 304.57 111.36 221 105.49 127.62 89.19 58.09 77.17 14.32 63.53 1.66 59.25"/><polyline class="cls-2" points="183.65 80.33 210.83 76.18 221.78 82.39 247.07 82.39 273.87 90.26"/><polyline class="cls-2" points="56.43 68.51 81.72 51.85 109.28 66.4 148.69 76.18"/><polyline class="cls-2" points="294.64 99.51 315.02 90.26 324.46 99.51"/><polyline class="cls-2" points="359.19 104.14 500.75 90.26 529.82 104.14"/><polyline class="cls-2" points="76.06 43.98 85.88 34.27 100.98 43.98"/><polyline class="cls-2" points="166.8 35.99 183.65 28.81 211.91 43.98"/><polyline class="cls-2" points="232.75 32.08 245.99 28.66 261.93 30.37"/><polyline class="cls-2" points="301.89 32.08 313.42 34.78 332.54 33.43 340.14 40.49 351.18 38.99 359.19 45"/><polyline class="cls-2" points="383.29 61.83 396.53 57.63 408.06 59.73"/><polyline class="cls-2" points="273.87 32.98 284.49 28.66 296.74 36.4"/><polyline class="cls-2" points="116.04 30.37 126.58 20.66 136.64 20.66 138.11 28.81"/><polygon class="cls-3" points="1.52 58.71 14.19 58.71 21.16 54.45 6.52 46.17 24.22 45.08 38.14 45 45.46 45 49.68 34.5 59.73 34.39 74.77 27.9 108.67 27.9 126.42 16.41 152.46 11.14 178.5 27.9 214.47 1.61 260.65 21.34 277.3 18.71 270.32 4.24 279.44 0.29 295.82 14.43 309.02 15.47 323.2 17.72 385.22 14.1 405.89 7.53 418.78 10.49 440.52 11.8 448.85 23.64 458.78 24.63 453.14 12.46 476.23 21.34 482.67 20.02 482.94 9.5 490.73 9.83 495.83 18.71 514.35 25.61 506.16 29.5 565.58 31.5 565.58 131.44 514.99 127.16 495.23 125.53 447.88 121.62 412.63 118.71 378.41 116.01 342.5 113.48 304.64 110.82 221.01 104.95 127.57 88.65 57.99 76.63 14.2 62.99 1.52 58.71"/></g></g></svg>